<svg width="256" height="256" xmlns="http://www.w3.org/2000/svg" preserveAspectRatio="xMinYMin meet">

 <g>
  <title>background</title>
  <rect fill="none" id="canvas_background" height="258" width="258" y="-1" x="-1"/>
 </g>
 <g>
  <title>Layer 1</title>
  <g stroke="null" id="svg_6">
   <path stroke="null" id="svg_1" fill="#B3B3B3" d="m127.776159,0.341l-120.776159,42.125323l19.085867,156.825679l101.81797,55.462003l102.343924,-56.213685l19.078245,-156.820013l-121.549846,-41.379308z"/>
   <path stroke="null" id="svg_2" fill="#A6120D" d="m237.279547,50.783924l-109.785421,-37.104356l0,227.823691l92.004913,-50.465588l17.779556,-140.253747l0.000953,0z"/>
   <path stroke="null" id="svg_3" fill="#DD1B16" d="m20.552862,51.452505l16.355095,140.255636l90.584263,49.795118l0,-227.827468l-106.938406,37.77577l-0.000953,0.000944z"/>
   <path stroke="null" id="svg_4" fill="#F2F2F2" d="m157.714606,134.960914l-30.22048,14.006205l-31.851702,0l-14.972558,37.116632l-27.84892,0.509935l74.673181,-164.6409l30.22048,113.009072l0,-0.000944zm-2.921335,-7.050319l-27.098101,-53.168242l-22.228256,52.253192l22.026259,0l27.300098,0.915994l0,-0.000944z"/>
   <path stroke="null" id="svg_5" fill="#B3B3B3" d="m127.493173,21.951841l0.200091,52.789568l25.221052,52.293798l-25.363975,0l-0.057169,21.897916l35.073175,0.033051l16.392255,37.633177l26.647419,0.48916l-78.112848,-165.13667z"/>
  </g>
 </g>
</svg>