<svg width="256" height="256" xmlns="http://www.w3.org/2000/svg" preserveAspectRatio="xMinYMin meet">

 <g>
  <title>background</title>
  <rect fill="none" id="canvas_background" height="258" width="258" y="-1" x="-1"/>
 </g>
 <g>
  <title>Layer 1</title>
  <g stroke="null" id="svg_5">
   <path stroke="null" id="svg_1" fill="#002A41" d="m30.999997,-0.000001l0,137.873248l96.483998,58.498606l0,-39.7651l-64.546818,-39.135652l0,-61.469442l64.546818,39.13485l0,-36.637102l-96.483998,-58.499408z"/>
   <path stroke="null" id="svg_2" fill="#0071B5" d="m223.96724,-0.000001l0,137.873248l-96.483245,58.498606l0,-39.7651l64.546064,-39.135652l0,-61.469442l-64.546818,39.13485l0,-36.637102l96.484752,-58.499408l-0.000754,0z"/>
   <path stroke="null" id="svg_3" fill="#0071B5" d="m30.999997,254.933004l0,-137.873248l96.483998,-58.499408l0,39.7651l-64.546818,39.13485l0,58.343048l64.546818,-39.13485l0,39.7651l-96.483998,58.499408z"/>
   <path stroke="null" id="svg_4" fill="#002A41" d="m223.96724,254.933004l0,-137.873248l-96.483245,-58.499408l0,39.7651l64.546064,39.13485l0,58.343048l-64.546818,-39.13485l0,39.7651l96.483998,58.499408z"/>
  </g>
 </g>
</svg>