<svg width="256" height="256" xmlns="http://www.w3.org/2000/svg" xmlns:xlink="http://www.w3.org/1999/xlink" preserveAspectRatio="xMinYMin meet">
 <defs>
  <path d="m42.5,75l169.5,0l0,59.2l-169.5,0l0,-59.2z" id="a"/>
 </defs>
 <clipPath id="b">
  <use id="svg_1" xlink:href="#a"/>
 </clipPath>
 <defs>
  <path d="m45,70.7l33.4,0l0,16.2l-33.4,0l0,-16.2z" id="c"/>
 </defs>
 <clipPath id="d">
  <use id="svg_2" xlink:href="#c"/>
 </clipPath>
 <defs>
  <path d="m181,79.3l25.4,0l0,17.2l-25.4,0l0,-17.2z" id="e"/>
 </defs>
 <clipPath id="f">
  <use id="svg_3" xlink:href="#e"/>
 </clipPath>
 <defs>
  <path d="m193.5,196.5l23.5,0l0,27.3l-23.5,0l0,-27.3z" id="g"/>
 </defs>
 <clipPath id="h">
  <use id="svg_4" xlink:href="#g"/>
 </clipPath>
 <defs>
  <path d="m203.2,182.8l7.8,0l0,6.4l-7.8,0l0,-6.4z" id="i"/>
 </defs>
 <clipPath id="j">
  <use id="svg_5" xlink:href="#i"/>
 </clipPath>
 <defs>
  <path d="m215.9,181.2l7.7,0l0,7.2l-7.7,0l0,-7.2z" id="k"/>
 </defs>
 <clipPath id="l">
  <use id="svg_6" xlink:href="#k"/>
 </clipPath>
 <defs>
  <path d="m204.5,193l15.8,0l0,8.6l-15.8,0l0,-8.6z" id="m"/>
 </defs>
 <clipPath id="n">
  <use id="svg_7" xlink:href="#m"/>
 </clipPath>
 <defs>
  <path d="m223,190.9l5.7,0l0,5l-5.7,0l0,-5z" id="o"/>
 </defs>
 <clipPath id="p">
  <use id="svg_8" xlink:href="#o"/>
 </clipPath>
 <defs>
  <path d="m66.1,182.6l128.9,0l0,36.5l-128.9,0l0,-36.5z" id="q"/>
 </defs>
 <clipPath id="r">
  <use id="svg_9" xlink:href="#q"/>
 </clipPath>
 <defs>
  <path d="m180.5,44.8l18,0l0,44.6l-18,0l0,-44.6z" id="s"/>
 </defs>
 <clipPath id="t">
  <use id="svg_10" xlink:href="#s"/>
 </clipPath>
 <defs>
  <path d="m38.6,51.5l44.2,0l0,31.6l-44.2,0l0,-31.6z" id="u"/>
 </defs>
 <clipPath id="v">
  <use id="svg_11" xlink:href="#u"/>
 </clipPath>
 <defs>
  <path d="m181.1,42.2l26.2,0l0,44.2l-26.2,0l0,-44.2z" id="w"/>
 </defs>
 <clipPath id="x">
  <use id="svg_12" xlink:href="#w"/>
 </clipPath>
 <defs>
  <path d="m61.7,64.6l117.3,0l0,111.9l-117.3,0l0,-111.9z" id="y"/>
 </defs>
 <clipPath id="z">
  <use id="svg_13" xlink:href="#y"/>
 </clipPath>
 <defs>
  <path d="m118.5,119.2l13.1,0l0,5.5l-13.1,0l0,-5.5z" id="A"/>
 </defs>
 <clipPath id="B">
  <use id="svg_14" xlink:href="#A"/>
 </clipPath>
 <defs>
  <path d="m117.9,113.2l14.5,0l0,9.9l-14.5,0l0,-9.9z" id="C"/>
 </defs>
 <clipPath id="D">
  <use id="svg_15" xlink:href="#C"/>
 </clipPath>
 <defs>
  <path d="m74.1,124.9l112.9,0l0,64.1l-112.9,0l0,-64.1z" id="E"/>
 </defs>
 <clipPath id="F">
  <use id="svg_16" xlink:href="#E"/>
 </clipPath>
 <defs>
  <path d="m80,125.9l93.6,0l0,47.5l-93.6,0l0,-47.5z" id="G"/>
 </defs>
 <clipPath id="H">
  <use id="svg_17" xlink:href="#G"/>
 </clipPath>
 <defs>
  <path d="m81,126.9l91.6,0l0,46.5l-91.6,0l0,-46.5z" id="I"/>
 </defs>
 <clipPath id="J">
  <use id="svg_18" xlink:href="#I"/>
 </clipPath>
 <g>
  <title>background</title>
  <rect fill="none" id="canvas_background" height="258" width="258" y="-1" x="-1"/>
 </g>
 <g>
  <title>Layer 1</title>
  <path id="svg_19" d="m57.9,193.3l0.6,-1.5l0.1,-0.2c0.5,-1.2 1,-2.5 1.5,-3.7c0.6,-1.6 1.2,-3.3 1.8,-4.9c0.4,-0.9 0.7,-1.8 1,-2.8c0.8,-2.2 1.9,-5.1 3.2,-7.9c0.8,-1.7 1.4,-2.9 2.1,-4c0.8,-1.3 1.6,-2.5 2.5,-3.7l0.7,-1l1.1,-0.7c0.1,-0.1 0.3,-0.2 0.5,-0.3c0.5,-0.3 1.1,-0.5 1.5,-0.7c0.7,-0.3 1.6,-0.6 2.6,-0.9c1.4,-0.4 3,-0.8 4.9,-1.2c2.8,-0.6 5.8,-1.2 9.6,-1.8c5.7,-0.9 11.8,-1.7 19.1,-2.5c12.9,-1.4 25.8,-2.4 38.2,-3c6.6,-0.3 11.6,-0.4 16.3,-0.4l3,0c3.1,0.1 6.7,0.2 10,0.7c1.2,0.2 2.3,0.4 3.1,0.7c0.3,0.1 0.6,0.2 0.7,0.3l1,0.4l0.8,0.7l0.9,0.9c1.1,1.1 2.3,2.4 3.5,3.9c3.8,4.8 7.2,10.6 10.2,17.2c2.9,6.4 4.7,12.1 5.8,17.7l1.5,7.9l-18.4,0l-1.1,-5.3c-1.2,-5.6 -16.3,-20.4 -23.8,-23.3c-0.8,-0.3 -4,-1.2 -13.9,-1.2c-20.4,0 -49.2,3.6 -53.3,4.5c-4.9,2.3 -12.4,11.9 -16.7,21.5l-1.8,3.9" fill="#FFF"/>
  <path id="svg_20" d="m182.9,164.1c-0.9,-1.2 -1.9,-2.3 -3,-3.3l-0.7,-0.7s-0.1,0 -0.2,-0.1c-0.5,-0.2 -1.2,-0.3 -1.9,-0.4c-2.9,-0.4 -6,-0.5 -9.1,-0.6c-6.3,-0.1 -12.6,0.1 -18.9,0.4c-12.6,0.6 -25.3,1.6 -37.8,3c-6.3,0.7 -12.6,1.5 -18.8,2.5c-3.1,0.5 -6.2,1 -9.2,1.7c-1.5,0.3 -3,0.7 -4.4,1.1c-0.7,0.2 -1.4,0.4 -2,0.7c-0.3,0.1 -0.6,0.2 -0.7,0.4c0,0 -0.1,0 -0.1,0.1c-0.7,1 -1.4,2 -2.1,3.1c-0.7,1.1 -1.2,2.3 -1.8,3.5c-1.1,2.4 -2.1,4.9 -3,7.4s-1.9,5.1 -2.8,7.7c-0.5,1.3 -1,2.6 -1.6,3.9c-0.2,0.6 -0.5,1.2 -0.8,1.8l8.5,0c4.6,-10.3 13.3,-22.1 20.5,-25c2,-0.8 34.2,-4.8 55.5,-4.8c7.9,0 13.3,0.6 16.3,1.7c8.7,3.4 26.1,19.5 27.9,28.2l4.9,0c-1,-5.5 -3,-10.9 -5.3,-16.1c-2.6,-6 -5.7,-11.5 -9.4,-16.2" fill="#BA8449"/>
  <path id="svg_21" d="m179.1,159.9z" fill="#FFF"/>
  <path id="svg_22" d="m179.1,159.9z" fill="#BA8449"/>
  <path id="svg_23" d="m192.1,202.6l-1,-5.4c-0.9,-4.5 -2.4,-9.3 -4.8,-14.6c-2.6,-5.6 -5.4,-10.5 -8.6,-14.4c-0.6,-0.8 -1.2,-1.5 -1.8,-2.1c-2.5,-0.4 -5.4,-0.4 -8,-0.5l-2.8,0c-4.5,0 -9.3,0.1 -15.7,0.4c-12.2,0.6 -24.7,1.6 -37.4,3c-7.1,0.8 -13,1.6 -18.4,2.4c-3.5,0.5 -6.3,1.1 -8.8,1.6c-1.6,0.4 -2.8,0.7 -3.9,1c-0.2,0 -0.3,0.1 -0.4,0.1c-0.2,0.4 -0.5,0.7 -0.7,1.1c-0.5,0.8 -0.9,1.7 -1.6,2.9c-1.1,2.3 -2,4.7 -2.8,6.8c-0.4,0.9 -0.7,1.8 -1,2.7c-0.6,1.7 -1.2,3.4 -1.9,5.1c-0.5,1.3 -1.1,2.6 -1.6,4l-0.1,0.2c-0.2,0.6 -0.5,1.2 -0.7,1.7l-1.8,4l-11.7,0l-1.7,-0.8l-0.2,-0.1c-4,-2.3 -4,-5.7 -3.9,-7.1l0,-0.3l0.2,-0.9l0.3,-1.1c0.2,-0.7 0.4,-1.5 0.6,-2.2c0.4,-1.5 0.9,-2.9 1.4,-4.3c0.9,-2.6 2,-5.4 3.3,-8.4c1.4,-3.1 2.7,-5.8 4.2,-8.3c0.7,-1.3 1.5,-2.6 2.5,-4.1c0.9,-1.4 1.9,-2.8 2.9,-4.1c0.9,-1.1 1.7,-1.8 2.3,-2.2l0.1,0c0.6,-0.5 1.2,-0.8 1.5,-0.9c0.9,-0.5 1.6,-0.8 2.1,-1c1.2,-0.5 2.3,-0.8 3.2,-1.1c2,-0.6 3.9,-1 5.3,-1.3c2.9,-0.6 6,-1.2 9.9,-1.8c5.8,-0.9 11.9,-1.6 19.4,-2.4c13,-1.3 26,-2.3 38.6,-2.8c6,-0.2 10.7,-0.4 15,-0.4l4.6,0c3.2,0.1 6.8,0.2 10.7,0.8l0.1,0c0.9,0.2 2.3,0.4 3.9,0.9l0.1,0c0.4,0.2 1,0.4 1.7,0.7c0.5,0.3 0.9,0.5 1.2,0.7l0.5,0.4l0.4,0.3l0.4,0.4l1.1,1.1c1.3,1.3 2.5,2.7 3.8,4.4c4,5.2 7.5,11.2 10.7,18.3c1.5,3.3 2.8,6.6 3.8,9.8c1.1,3.5 1.9,6.8 2.5,10l1.2,7.7l-18.2,0l0,0.1z" fill="#FFF"/>
  <path id="svg_24" d="m64.3,202.6l4.4,-9.5c3.7,-7.9 12.6,-22.4 22.5,-26.5l0.2,-0.1c3.3,-1.2 36.7,-5.1 57.1,-5.1c11.4,0 15.7,1.1 17.9,2c10.3,4 28.2,20.9 30.6,30.9l2,8.2l-134.7,0l0,0.1z" fill="#FFF"/>
  <path id="svg_25" d="m185.4,202.6l-1.2,-5.1c-1.1,-4.7 -15.2,-18.8 -22.5,-21.7c-0.7,-0.3 -3.6,-1.1 -13.2,-1.1c-19.6,0 -48,3.5 -52.6,4.4c-3.8,1.9 -10.7,10 -15.2,19.6l-1.8,3.8l-16.6,0l4.2,-9.3c4.9,-11 14.6,-24.6 24.1,-28.4c3.7,-1.5 37.5,-5.3 58,-5.3c8.9,0 14.9,0.7 18.6,2.1c10.3,4 29.6,21.4 32,33l1.6,8l-15.4,0z" fill="#FFF"/>
  <path id="svg_26" d="m193.1,202.6l-1.9,-1.8c-7.2,-6.7 -9.2,-20.6 -7,-26.3c1.5,-3.8 4.7,-5.1 7.1,-5.1c0.7,0 1.3,0.1 1.9,0.3c1.3,-0.1 4.3,-2.6 5.2,-4c1.4,-2.6 4.1,-4.2 7.4,-4.2c4.9,0 12.9,3.9 15.5,7.6c1.5,2.1 1.9,4.6 1.1,6.8c-0.1,0.2 -0.2,0.6 -0.4,1.1c-2.7,8.1 -6.2,18 -9,22.6l-1.9,3.1l-18,-0.1z" fill="#FFF"/>
  <path id="svg_27" d="m192.5,202.6l6.2,-10.1c3,-4.9 5.1,-8.9 6.5,-12c-3.5,2.5 -8.4,4 -15.7,4.4l-0.2,-0.2l-0.1,0.7c-4.3,0 -7.8,-3.5 -8,-7.8c-0.1,-2.1 0.7,-4.2 2.1,-5.8c1.4,-1.6 3.4,-2.5 5.5,-2.6c7.2,-0.3 8.1,-2 9.4,-4.5c1.8,-3.4 5.7,-5.4 10.8,-5.4c1.3,0 2.6,0.1 3.8,0.4c6.3,1.4 10.4,6.2 10.7,12.4c0.3,6.3 -3.2,15.5 -10.2,27.3l-1.9,3.2l-18.9,0z" fill="#FFF"/>
  <path id="svg_28" d="m218.8,182.9c-8.1,0 -16.9,-5.3 -21.4,-10.5c-4.1,-4.7 -4.5,-8.9 -4.1,-11.6c0.5,-3.3 3.2,-6.6 8.1,-6.6c0.9,0 1.8,0.1 2.6,0.2c0.8,-3.6 2.7,-11.1 10.4,-11.1l1.1,0c3.7,0.4 6.5,2.7 7.6,6.2c1.2,-0.6 2.6,-1.1 4.2,-1.1c2.4,0 4.7,1 6.4,2.8c2.7,2.9 3.3,6.9 1.6,10.7c1.8,1.1 3.2,2.8 3.8,5c0.8,2.8 0.3,5.8 -1.5,8.2c-3.5,4.9 -11.6,7.2 -18,7.4c-0.4,0.4 -0.6,0.4 -0.8,0.4m-8,-164.7c-7.3,4.6 -15.3,15.1 -25.1,29.5c-1.5,2.3 -4,3.5 -6.8,3.5c-3.6,0 -8.2,-2.2 -13.5,-6.5c-8.4,-6.8 -8.6,-10.6 -8.7,-12.1c-0.2,-4 2.8,-7.4 7,-7.8c8.1,-0.7 14.8,-5.6 21.3,-10.3c6.5,-4.7 12.5,-9 19.7,-9c1.4,0 2.9,0.2 4.3,0.5" fill="#FFF"/>
  <path id="svg_29" d="m164.3,31.5c19.6,-1.8 31.1,-22.1 43,-19c-8,5 -15.9,15 -27,31.4c-2.7,3.9 -21.4,-11.9 -16,-12.4" fill="#FFF8EE"/>
  <path id="svg_30" d="m37.3,22.2c4.9,-4.5 11.5,-6.8 19.6,-6.8c7,0 15.3,1.7 24.6,5.1c2.5,0.9 5.8,1.1 8.3,1.1l3.7,0c2.3,0 7.2,0 9.3,4.5c0.7,1.7 1.6,5.2 -1.1,9.3c-3.3,5.1 -12,10.5 -20.4,10.5l-0.4,0c-4.5,-0.1 -8.7,-2.5 -13.6,-5.2c-6.1,-3.4 -13,-7.3 -21.2,-7.3c-1.1,0 -2.3,0.1 -3.4,0.2m145.4,37.1c-3.6,0 -10.4,-1.5 -14.7,-11.7c-2.4,-5.4 -3.2,-11.5 -3.2,-14.9c0,-7 3.7,-8.9 6,-9.4c1.6,-1.6 4.6,-5.7 6.8,-8.8c9.1,-12.4 15.7,-20.5 23.4,-20.5c1.3,0 2.5,0.2 3.7,0.7c10.3,4.1 15.3,12.8 13.6,23.8c-1.2,8.1 -6.3,17.7 -13.8,26.5c-3.5,4.1 -12.6,13.7 -20.7,14.3l-1.1,0" fill="#FFF"/>
  <path id="svg_31" d="m69.9,74.5c-0.9,0 -1.8,0 -2.6,-0.2c-12.8,-2.1 -28.8,-15 -34.8,-28.3c-4.1,-9.1 -2.3,-15.3 0,-18.9c3.7,-5.9 9.2,-9 16,-9c8.2,0 16.4,4.5 23.6,8.4c2.8,1.5 6.8,3.7 8.5,4.1c0.6,-0.2 1.2,-0.3 1.9,-0.3c2.6,0 5,1.4 6.4,3.8c3.3,5.8 1.3,21.4 -3.9,30.4c-3.6,6.6 -9,10 -15.1,10z" fill="#FFF"/>
  <path id="svg_32" d="m114.5,186.1c-30,0 -59.7,-14.7 -69.6,-25.4c-10.3,-11.1 -14,-23.7 -11.2,-37.5c2.4,-11.3 8.7,-21.4 14.2,-30.4c3.8,-6.2 7.4,-12 8.4,-16.2c12.2,-53.9 42.8,-60.8 68.1,-60.8c1.6,0 3.3,0 5.2,0.1c53.9,1.6 59.3,27.6 62.5,43.2c0.6,2.9 1.2,5.6 1.9,7.4c18.1,44.4 21.1,71 10,89c-10.9,17.7 -34.8,26.4 -82.4,30.3c-2.3,0.2 -4.7,0.3 -7.1,0.3z" fill="#FFF"/>
  <path id="svg_33" d="m113.4,186.2c-30.6,0 -58.9,-15.2 -68.4,-25.5c-10.3,-11.1 -14,-23.7 -11.2,-37.5c2.4,-11.3 8.7,-21.4 14.2,-30.4c3.8,-6.2 7.4,-12 8.4,-16.2c12.2,-53.9 42.8,-60.8 68.1,-60.8c1.6,0 3.3,0 5.2,0.1c53.9,1.6 59.3,27.6 62.5,43.2c0.6,2.9 1.2,5.6 1.9,7.4c17.8,43.7 20.7,70.1 9.8,88.1c-12.5,20.7 -41.9,27.4 -82.1,31.2c-2.8,0.3 -5.6,0.4 -8.4,0.4" fill="#FFF"/>
  <path id="svg_34" d="m191.3,148.6c0.4,-0.9 0.8,-1.9 1.2,-2.8c4.1,-9.8 7.2,-18.4 2.3,-23.9c-5.8,-6.4 -30.3,-18 -52.1,-28.2c-41.7,-19.7 -67.5,-32.4 -71.2,-45c-0.9,-3.2 -0.5,-6.5 1.2,-9.3c7.2,-11.3 27.3,-23.4 54.8,-23.4l0.8,0c25.9,0.2 44.7,7.7 56,22.1c9.6,12.2 11.7,26.5 13.3,36.9c0.5,3.5 1.2,8 1.9,9.2c19.6,33.7 10.6,58.6 3.5,70.3l-11.7,-5.9z" fill="#FFF"/>
  <path id="svg_35" d="m170.8,109.8c-10.1,0 -27,-2.5 -32.8,-8.1c-4.6,-4.4 -6.3,-11.7 -8.1,-18.8c-0.7,-3 -1.9,-7.8 -3,-10l-0.1,0c-0.4,1.1 -0.9,2.5 -1.3,3.6c-2.7,7.6 -6.5,18.1 -14.4,23.8c-3.4,2.5 -15.7,4.7 -25.2,4.7s-16.7,-2 -21.5,-6.1c-6.9,-5.8 -12.1,-16.5 -15.6,-31.8c-0.2,-0.1 -0.3,-0.2 -0.5,-0.3c-1.6,-1.1 -3.7,-2.4 -4.8,-4.7c-1.8,-3.6 -1.1,-10 0.8,-13.4c1.4,-2.5 3.8,-4.1 6.4,-4.3l0.9,0c1.4,0 2.8,0.2 4.4,0.5s3.5,0.6 5.1,0.6l0.9,0c9.5,-1.4 18.4,-2 26.5,-2c19.7,0 30.1,4 34,5.6c0.3,0.1 0.6,0.2 0.8,0.3c1.1,0.3 3.2,0.7 5.4,0.7c0.8,0 1.6,0 2.3,-0.2c8.9,-1.4 17.4,-2 25.2,-2c20.8,0 31.8,4.7 36.6,6.8c0.4,0.2 0.8,0.4 1.1,0.4l0.4,0c1.3,0 3.2,-0.4 4.8,-0.7c1.2,-0.3 2.4,-0.5 3.5,-0.7l0.9,0c3.1,0 5.9,1.8 7.6,4.8c1.9,3.5 3.2,10.8 0.5,15c-1.8,2.8 -4.7,4.1 -7.1,5.2c-0.3,0.1 -0.7,0.3 -1,0.5c-0.8,1.4 -2.2,4.2 -3.4,6.5c-3.5,6.8 -7.4,14.6 -11,18.8c-3.2,3.6 -9.2,5.3 -18.3,5.3" fill="#FFF"/>
  <g id="svg_36" clip-path="url(#b)" opacity="0.3">
   <path id="svg_37" d="m166.778,108.181c-8,0 -19.3,-1.2 -27.4,-6.9c-4.6,-3.3 -6.7,-9.9 -9.6,-20.5c-0.8,-3 -2,-7.2 -2.9,-9.3c-0.5,1.2 -1.1,2.8 -1.6,4.1c-3,8.1 -7.1,19.1 -14.6,23.7c-3.9,2.4 -16,4.6 -25.4,4.6c-10.1,0 -17.4,-2.3 -21.6,-6.7c-10.7,-11.2 -12.8,-21.9 -14.1,-28.2c-0.2,-0.9 -0.4,-2.1 -0.6,-2.8c-6.3,-3.3 -6.7,-8.2 -6.6,-10.3c0.3,-3.9 3.3,-6.8 7,-6.8c2.5,0 4.1,1.2 5.3,2c0.1,0.1 0.2,0.2 0.4,0.2c0.1,0 0.4,0.1 0.5,0.2c1.6,0.5 6.3,1.8 7.3,7.9c0.2,1.1 1.8,7.5 4.4,14.2c4.1,10.7 7,12.5 7.3,12.6c3.4,1.2 7.4,1.8 11.9,1.8c7.4,0 13.6,-1.6 16.1,-2.4c1.5,-2.3 4.5,-8.3 6.6,-12.4c6.3,-12.5 7.4,-14.4 10.1,-15.8c1.5,-0.8 3.3,-1.2 5.6,-1.2c3,0 7.3,0.7 9.3,1.6c4.6,2 7,8 12.4,23.5c1,2.8 2.2,6.4 3,8.2c4,1.9 13.1,3.2 22.6,3.2c2.7,0 4.7,-0.1 6,-0.2c0.9,-1.9 2.2,-4.6 3.3,-6.9c7.6,-16.2 8.8,-18.1 10.7,-19.6c3.3,-2.5 9.1,-4.2 12.4,-4.2c4.4,0 6.8,2.9 7.4,5.7c1.1,5.8 -4.6,8 -6.5,8.7c-0.5,0.2 -1.2,0.5 -1.7,0.7c-0.7,1.2 -2,3.8 -3,5.9c-8.2,16 -10.9,20.4 -14,22.3c-3.8,2.1 -13,3.1 -20,3.1" fill="#FFF"/>
  </g>
  <g id="svg_38" clip-path="url(#d)" opacity="0.3">
   <path id="svg_39" d="m61.388,60.816c-1.2,0 -3.5,-0.2 -8.1,-1.7c-1.2,-0.4 -2.3,-0.8 -3,-1.1c-1.5,-0.6 -5.4,-2.1 -5.4,-6.7l0,-6.7l6.6,0c0.9,0 1.5,0.2 2,0.3c1.4,0.2 5.9,0.5 7.4,0.6l0.9,0.1c1.2,0 4.9,-0.5 6.5,-0.7c2,-0.3 2.6,-0.4 3.4,-0.4l5.7,0l0.9,5.6c0.4,2.8 -1.1,6.3 -4.8,7.4c-0.2,0.1 -0.9,0.3 -1.5,0.5c-3.5,1.3 -7,2.5 -10,2.6c-0.2,0.2 -0.4,0.2 -0.6,0.2" fill="#FFF"/>
  </g>
  <g id="svg_40" clip-path="url(#f)" opacity="0.3">
   <path id="svg_41" d="m193.488,70.41c-2.2,0 -4.4,-0.9 -7.4,-3c-2.9,-2 -5.1,-4 -5.1,-7.5l0,-6.7l6.5,0c0.9,0 1.8,0.2 2.7,0.6c0.7,0.3 3.4,1.2 4.6,1.5c0.4,0 1.2,-0.2 2.8,-0.5c0.8,-0.2 1.3,-0.2 2,-0.2l5.7,0l0.9,5.6c0.4,2.7 -0.8,6.1 -4.5,7.4l-1.2,0.6c-1.8,0.9 -3.9,1.9 -6,2.3c-0.2,-0.1 -0.6,-0.1 -1,-0.1" fill="#FFF"/>
  </g>
  <path id="svg_42" d="m171.7,217.3l-24.6,0l0,-21.3l24.6,0l0,21.3z" fill="#FFF"/>
  <path id="svg_43" d="m182.9,164.1c-0.9,-1.2 -1.9,-2.3 -3,-3.3l-0.7,-0.7s-0.1,0 -0.2,-0.1c-0.5,-0.2 -1.2,-0.3 -1.9,-0.4c-2.9,-0.4 -6,-0.5 -9.1,-0.6c-6.3,-0.1 -12.6,0.1 -18.9,0.4c-12.6,0.6 -25.3,1.6 -37.8,3c-6.3,0.7 -12.6,1.5 -18.8,2.5c-3.1,0.5 -6.2,1 -9.2,1.7c-1.5,0.3 -3,0.7 -4.4,1.1c-0.7,0.2 -1.4,0.4 -2,0.7c-0.3,0.1 -0.6,0.2 -0.7,0.4c0,0 -0.1,0 -0.1,0.1c-0.7,1 -1.4,2 -2.1,3.1c-0.7,1.1 -1.2,2.3 -1.8,3.5c-1.1,2.4 -2.1,4.9 -3,7.4s-1.9,5.1 -2.8,7.7c-0.5,1.3 -1,2.6 -1.6,3.9c-0.2,0.6 -0.5,1.2 -0.8,1.8l8.5,0c4.6,-10.3 13.3,-22.1 20.5,-25c2,-0.8 34.2,-4.8 55.5,-4.8c7.9,0 13.3,0.6 16.3,1.7c8.7,3.4 26.1,19.5 27.9,28.2l4.9,0c-1,-5.5 -3,-10.9 -5.3,-16.1c-2.6,-6 -5.7,-11.5 -9.4,-16.2m-3.8,-4.2z" fill="#BA8449"/>
  <path id="svg_44" d="m179.1,159.9zm17.8,17.9c-2.7,-6 -5.8,-11.7 -9.9,-16.9c-1,-1.3 -2.1,-2.6 -3.3,-3.8l-0.9,-0.9l-0.2,-0.2l-0.1,-0.1l-0.2,-0.2c-0.2,-0.1 -0.4,-0.2 -0.5,-0.3c-0.3,-0.2 -0.6,-0.3 -0.9,-0.4c-1.1,-0.4 -1.9,-0.5 -2.8,-0.7c-3.4,-0.5 -6.6,-0.6 -9.8,-0.7c-6.5,-0.1 -12.8,0 -19.2,0.3c-12.8,0.5 -25.5,1.5 -38.2,2.8c-6.3,0.7 -12.7,1.4 -19.1,2.4c-3.2,0.5 -6.3,1 -9.5,1.7c-1.6,0.4 -3.2,0.7 -4.8,1.2c-0.8,0.2 -1.6,0.5 -2.5,0.9c-0.4,0.2 -0.9,0.4 -1.4,0.7c-0.2,0.2 -0.5,0.3 -0.8,0.5c-0.3,0.2 -0.6,0.5 -1,1c-0.9,1.1 -1.8,2.4 -2.6,3.6c-0.8,1.2 -1.6,2.5 -2.3,3.8c-1.4,2.5 -2.7,5.1 -3.9,7.7c-1.1,2.6 -2.2,5.2 -3.1,7.9c-0.5,1.3 -0.9,2.6 -1.2,4c-0.2,0.7 -0.4,1.3 -0.6,2l-0.3,1l-0.1,0.5c0,0.1 0.2,0.2 0.6,0.5l5.9,0c0.3,-0.6 0.5,-1.2 0.8,-1.8c0.5,-1.3 1.1,-2.6 1.6,-3.8c1,-2.6 1.9,-5.1 2.8,-7.7c0.9,-2.5 1.9,-5.1 3,-7.4c0.6,-1.2 1.2,-2.3 1.8,-3.5c0.7,-1.1 1.3,-2.1 2.1,-3.1c0,0 0.1,0 0.1,-0.1c0.2,-0.1 0.5,-0.2 0.7,-0.4c0.6,-0.2 1.3,-0.5 2,-0.7c1.4,-0.4 2.9,-0.8 4.4,-1.1c3,-0.7 6.1,-1.2 9.2,-1.7c6.2,-1 12.5,-1.8 18.8,-2.5c12.6,-1.4 25.2,-2.4 37.8,-3c6.3,-0.3 12.6,-0.5 18.9,-0.4c3.1,0.1 6.3,0.2 9.1,0.6c0.7,0.1 1.4,0.3 1.9,0.4c0.1,0 0.2,0 0.2,0.1l0.7,0.7c1.1,1.1 2,2.2 3,3.3c3.7,4.7 6.8,10.2 9.4,15.8c2.3,5.2 4.3,10.6 5.3,16.1l5,0c-0.5,-3.1 -1.3,-6.1 -2.2,-9c-1.2,-3.1 -2.4,-6.1 -3.7,-9.1" fill="#895B2E"/>
  <path id="svg_45" d="m164.1,169.7c-2.6,-1 -7.9,-1.6 -15.5,-1.6c-21.4,0 -53,4 -54.7,4.7c-6.5,2.6 -14.6,13.6 -19.1,23.2l115.9,0c-1.9,-7.5 -18,-22.9 -26.6,-26.3" fill="#FFF8EE"/>
  <path id="svg_46" d="m164.8,167.8c-2.9,-1.1 -8.4,-1.7 -16.3,-1.7c-21.3,0 -53.5,4 -55.5,4.8c-7.3,3 -15.9,14.7 -20.5,25l2.2,0c4.5,-9.5 12.6,-20.5 19.1,-23.2c1.7,-0.7 33.3,-4.7 54.7,-4.7c7.6,0 12.9,0.5 15.5,1.6c8.6,3.3 24.7,18.8 26.6,26.3l2,0c-1.7,-8.6 -19.1,-24.7 -27.8,-28.1" fill="#E5D0AE"/>
  <path id="svg_47" d="m204.4,168.7c-1.2,2.5 -7.5,8.9 -12.8,7.4c-2.8,-0.8 -2.3,14 4.1,19.9l11.6,0c3.2,-5.1 8.2,-20.7 8.8,-22.3c0.7,-1.9 -10.5,-7.5 -11.7,-5" fill="#BA8449"/>
  <path id="svg_48" d="m216.7,172.4c-0.2,-3.2 -2.1,-5.5 -5.5,-6.3c-2.7,-0.6 -6.3,-0.1 -7.2,1.6c-1.8,3.4 -4,7.5 -14.9,8.1c-0.7,0 -1.3,0.7 -1.3,1.4s0.7,1.3 1.4,1.3c11.4,-0.5 14.7,-4.9 17.1,-9.4c0.5,-0.4 3.2,-0.9 5.4,0c1.6,0.7 2.3,1.8 2.4,3.5c0.3,6.2 -6.2,17.7 -9.7,23.5l3.1,0c3.9,-6.8 9.5,-17.3 9.2,-23.7" fill="#895B2E"/>
  <g id="svg_49" clip-path="url(#h)" opacity="0.15">
   <path id="svg_50" d="m194.235,196.3c7.1,-1.7 13.4,-8.8 13.9,-18.9c0.1,-1.9 -3.8,-5.5 -3.8,-6.5s11.9,0.2 12.5,3c0.5,2.8 -7.4,19.7 -10.1,22.5c-2.6,2.7 -16.7,0.9 -12.5,-0.1" fill="#E3AB5E"/>
  </g>
  <path id="svg_51" d="m199.8,161.8c-0.9,6.2 11.2,14.7 19.4,14.5c6.8,-0.2 14.5,-3.4 13.4,-7.2c-1.1,-3.9 -7.7,0.7 -8.3,-2c-0.5,-2.6 7.7,-7.5 4.4,-11.1c-3.1,-3.3 -6.7,5.2 -10.3,4c-3.6,-1.2 0.7,-9.5 -3.8,-10c-5.3,-0.5 -3.3,11.3 -7.3,11.5c-2.8,0.3 -7.2,-1.7 -7.5,0.3" fill="#FCD4C3"/>
  <path id="svg_52" d="m199.8,161.8c-0.9,6.2 11.2,14.7 19.4,14.5c6.8,-0.2 14.5,-3.4 13.4,-7.2c-1.1,-3.9 -7.7,0.7 -8.3,-2c-0.5,-2.6 7.7,-7.5 4.4,-11.1c-3.1,-3.3 -6.7,5.2 -10.3,4c-3.6,-1.2 0.7,-9.5 -3.8,-10c-5.3,-0.5 -3.3,11.3 -7.3,11.5c-2.8,0.3 -7.2,-1.7 -7.5,0.3z" stroke-miterlimit="10" stroke-width="2" stroke="#F8A38F" fill="none"/>
  <g id="svg_53" clip-path="url(#j)" opacity="0.5">
   <path id="svg_54" d="m203.238,161.742c1.3,1 6,2.3 6.7,0.6c0.8,-1.7 1.4,-5.1 0.9,-5.6c-0.4,1.6 -0.9,4.6 -2.6,5.3c-1.3,0.5 -4.1,-0.1 -5,-0.3" fill="#FCD4C3"/>
  </g>
  <g id="svg_55" clip-path="url(#l)" opacity="0.5">
   <path id="svg_56" d="m216.159,155.142c-0.2,1.1 -1.1,6.3 1.6,7c2.3,0.6 4,-0.8 5.8,-3.7c-1,0.9 -3.5,3.1 -5.4,2.3c-1.9,-0.9 -2.1,-2.9 -2,-5.6" fill="#FCD4C3"/>
  </g>
  <g id="svg_57" clip-path="url(#n)" opacity="0.25">
   <path id="svg_58" d="m204.576,169.158c13.6,-6.7 16.4,4.2 15.7,6.4c-5.4,0.9 -14.9,-4.7 -15.7,-6.4" fill="#FCD4C3"/>
  </g>
  <g id="svg_59" clip-path="url(#p)" opacity="0.5">
   <path id="svg_60" d="m224.351,164.896c-2.3,2.6 -1.2,4.7 0.3,5c1.9,0.4 4.4,-1.6 4,-1.6c-0.5,0 -4.2,1.2 -4.9,-0.6c-0.5,-1.4 0.3,-2.2 0.6,-2.8" fill="#FCD4C3"/>
  </g>
  <g id="svg_61" clip-path="url(#r)" opacity="0.15">
   <path id="svg_62" d="m69.034,182.266c43.7,25.1 130.4,-0.4 125.8,-8.6c-6.1,-10.9 -8.5,-17.7 -21.9,-17.1c-13.3,0.7 -98.9,7.5 -102.4,10.1c-3.4,2.7 -7.2,12.3 -1.5,15.6" fill="#E3AB5E"/>
  </g>
  <path id="svg_63" d="m164.3,31.5c19.6,-1.8 31.1,-22.1 43,-19c-8,5 -15.9,15 -27,31.4c-2.7,3.9 -21.4,-11.9 -16,-12.4" fill="#FFF8EE"/>
  <path id="svg_64" d="m164.3,31.5c19.6,-1.8 31.1,-22.1 43,-19c-8,5 -15.9,15 -27,31.4c-2.7,3.9 -21.4,-11.9 -16,-12.4z" stroke-miterlimit="10" stroke-linejoin="round" stroke-linecap="round" stroke-width="3" stroke="#E5D0AE" fill="none"/>
  <path id="svg_65" d="m41.8,27.1c8.8,-8.2 24.7,-5 37.5,-0.4c7.3,2.6 16.8,0.5 17.4,2c1.6,3.5 -7.9,10.7 -15.7,10.5c-7.7,-0.1 -20.6,-14.6 -39.2,-12.1" fill="#BA8449"/>
  <path id="svg_66" d="m41.8,27.1c8.8,-8.2 24.7,-5 37.5,-0.4c7.3,2.6 16.8,0.5 17.4,2c1.6,3.5 -7.9,10.7 -15.7,10.5c-7.7,-0.1 -20.6,-14.6 -39.2,-12.1z" stroke-miterlimit="10" stroke-linejoin="round" stroke-linecap="round" stroke-width="2" stroke="#895B2E" fill="none"/>
  <path id="svg_67" d="m177.7,41.2c4.5,1.3 21.6,-32.2 29.9,-28.9c26.4,10.5 -8,50.9 -18.9,51.8c-11,0.8 -13.5,-23.7 -11,-22.9" fill="#FCD4C3"/>
  <path id="svg_68" d="m177.7,41.2c4.5,1.3 21.6,-32.2 29.9,-28.9c26.4,10.5 -8,50.9 -18.9,51.8c-11,0.8 -13.5,-23.7 -11,-22.9z" stroke-miterlimit="10" stroke-width="2" stroke="#F8A38F" fill="none"/>
  <path id="svg_69" d="m82.3,37.2c-7.3,3.2 -33.2,-23.9 -44.1,-6.5c-7.2,11.5 14.6,34.7 30.2,37.2s17.7,-32.4 13.9,-30.7" fill="#FCD4C3"/>
  <path id="svg_70" d="m82.3,37.2c-7.3,3.2 -33.2,-23.9 -44.1,-6.5c-7.2,11.5 14.6,34.7 30.2,37.2s17.7,-32.4 13.9,-30.7z" stroke-miterlimit="10" stroke-width="2" stroke="#F8A38F" fill="none"/>
  <g id="svg_71" clip-path="url(#t)">
   <path id="svg_72" d="m198.067,18.8c-1.4,4.6 -13.2,16.5 -11.6,26.7c0.6,3.8 4.6,15 6.3,14.6s6,-3.1 5.6,-2.5c-0.4,0.6 -6,4.7 -8.1,5.8c-2.1,-1.1 -11,-21.8 -9.7,-22.9c3.9,-3.5 15.8,-21.5 17.5,-21.7" fill="#FCD4C3"/>
  </g>
  <g id="svg_73" clip-path="url(#v)">
   <path id="svg_74" d="m38.533,31.4c8,-4.9 22.6,-2.8 31.1,5.5c3,3 3.9,13 -2.9,19.8c-2.7,2.7 16,-9.6 16.1,-13.2c0,-3.6 -1.2,-4.6 -4,-5.6c-10.3,-3.8 -21.1,-12.6 -30.5,-12.4c-6.1,0.1 -8.9,4.3 -9.8,5.9" fill="#FCD4C3"/>
  </g>
  <g id="svg_75" clip-path="url(#x)" opacity="0.25">
   <path id="svg_76" d="m201.3,16.175c18.2,10 -11.1,25.2 -8.9,44.1c-3.8,-0.4 -13.2,-18.7 -10.9,-20.3c3.2,-2.2 16.7,-24.6 19.8,-23.8" fill="#FCD4C3"/>
  </g>
  <path id="svg_77" d="m60.9,77.6c0.3,-1.3 0.5,-2.7 0.5,-4c0.1,-1.4 0.2,-2.8 0.5,-4.1c0.1,-0.7 0.3,-1.4 0.6,-2c0.3,-0.6 0.5,-1.3 0.7,-1.9c0.5,-1.3 1,-2.6 1.6,-3.8c2.3,-5.1 4.9,-9.9 8.1,-14.4c3.2,-4.5 6.7,-8.7 10.7,-12.3c4,-3.7 8.7,-6.7 13.7,-8.7c5,-2.1 10.4,-3.4 15.8,-4c5.4,-0.7 10.8,-0.8 16.2,-0.7c5.4,0.1 10.8,0.4 16.2,1.1c5.4,0.7 10.8,1.9 16,3.8c2.6,1 5.1,2.1 7.5,3.5c2.4,1.4 4.7,3.1 6.8,5.1c2.1,1.9 3.9,4.2 5.4,6.6c1.5,2.4 2.6,5 3.6,7.7c0.9,2.6 1.6,5.3 2.2,8s1,5.3 1.6,7.8c0.3,1.2 0.7,2.4 1.1,3.6c0.5,1.2 1,2.5 1.4,3.8c0.9,2.5 1.9,5.1 2.8,7.6c3.5,10.2 6.6,20.6 8.5,31.2c0.9,5.3 1.6,10.7 1.7,16.1c0.1,5.4 -0.4,10.8 -1.9,16c-0.4,1.3 -0.8,2.6 -1.3,3.8c-0.5,1.2 -1.2,2.4 -1.6,3.7c-0.2,0.7 -0.4,1.3 -0.7,1.9c-0.3,0.6 -0.7,1.2 -1.1,1.8c-0.7,1.1 -1.6,2.3 -2.5,3.3c-3.5,4.2 -8,7.6 -12.8,10.2s-10,4.6 -15.2,6.1c-5.3,1.5 -10.5,2.7 -15.9,3.7s-10.7,1.7 -16,2.4l-8.1,0.9l-4,0.4c-1.3,0.1 -2.7,0.2 -4.1,0.3c-11,0.6 -22,-1 -32.5,-3.9c-5.3,-1.5 -10.4,-3.3 -15.4,-5.5s-9.9,-4.7 -14.5,-7.7c-2.3,-1.5 -4.6,-3.2 -6.7,-5.1c-0.5,-0.5 -1.1,-1 -1.6,-1.5s-0.9,-1.1 -1.4,-1.6c-0.9,-1.1 -1.8,-2.2 -2.6,-3.3c-3.1,-4.6 -5.6,-10 -6.4,-15.6c-0.9,-5.7 -0.1,-11.5 1.5,-16.8c1.6,-5.4 4.1,-10.3 6.7,-15.1c2.7,-4.7 5.6,-9.3 8.4,-13.8c1.4,-2.3 2.7,-4.6 3.9,-6.9c1.1,-3 2.1,-5.3 2.6,-7.7zm4,0.9c-0.7,2.8 -1.9,5.4 -3.2,7.9s-2.7,4.8 -4.1,7.1c-2.8,4.6 -5.7,9.1 -8.2,13.7s-4.8,9.4 -6.2,14.3c-1.4,4.9 -2,10 -1.2,15c0.8,4.9 2.9,9.6 5.9,13.7c0.7,1 1.6,2 2.4,3c0.4,0.5 0.9,1 1.3,1.4c0.4,0.5 0.9,0.9 1.3,1.3c1.8,1.7 3.9,3.2 6.1,4.7c4.4,2.8 9,5.3 13.9,7.4c4.8,2.1 9.8,3.9 14.9,5.3s10.2,2.5 15.4,3.2c5.2,0.7 10.4,0.9 15.6,0.7l3.9,-0.3l4,-0.4c2.6,-0.2 5.3,-0.5 8,-0.8c5.3,-0.5 10.6,-1.2 15.8,-2.1c5.3,-0.9 10.4,-1.9 15.5,-3.3s10.1,-3 14.9,-5.1c4.7,-2.2 9.3,-4.9 13,-8.6c0.9,-0.9 1.8,-1.9 2.6,-2.9c0.4,-0.5 0.8,-1.1 1.2,-1.6c0.4,-0.5 0.9,-1 1.3,-1.6c0.9,-1.1 1.3,-2.3 1.9,-3.5c0.5,-1.2 0.9,-2.5 1.2,-3.8c1.3,-5.2 1.6,-10.6 1.3,-15.9c-0.4,-5.3 -1.3,-10.6 -2.6,-15.8c-2.5,-10.4 -6.2,-20.4 -10.1,-30.3c-1,-2.5 -2,-5 -3,-7.4l-1.6,-3.7c-0.5,-1.3 -1,-2.7 -1.4,-4c-0.7,-2.7 -1.2,-5.3 -1.8,-7.9c-0.5,-2.6 -1.2,-5.1 -2,-7.5c-1.7,-4.9 -4.2,-9.3 -7.9,-12.8c-3.6,-3.5 -8.1,-6.2 -12.9,-8.2c-4.8,-2 -10,-3.3 -15.2,-4.2c-5.2,-0.9 -10.5,-1.4 -15.8,-1.7c-5.3,-0.2 -10.7,-0.3 -16,0.3c-5.3,0.6 -10.5,1.7 -15.4,3.8c-4.9,2 -9.4,4.9 -13.2,8.5c-3.9,3.6 -7,8 -9.3,12.6c-2.4,4.7 -4.1,9.7 -5.6,14.7c-0.4,1.2 -0.7,2.5 -1,3.8c-0.2,0.6 -0.3,1.3 -0.5,1.9c-0.1,0.3 -0.1,0.7 -0.2,1c-0.1,0.3 -0.2,0.6 -0.4,0.9c-0.5,1.2 -1.1,2.4 -1.7,3.6c-0.2,1.1 -0.6,2.3 -0.9,3.6z" fill="#E5D0AE"/>
  <path id="svg_78" d="m62.9,78.1c-4.2,18.6 -40.9,48 -13,78.1c9.5,10.2 40.3,25.9 71.2,23c80.4,-7.6 100.7,-27 66.8,-110.2c-5.5,-13.5 0.7,-44.7 -58.4,-46.5c-24.8,-0.7 -54.6,2.7 -66.6,55.6" fill="#FFF8EE"/>
  <path id="svg_79" d="m76.8,41.7c2.6,-4 6,-7.3 9.8,-10c3.8,-2.7 8.1,-4.7 12.4,-6.3c8.8,-3.2 18,-4.4 27.2,-4.7c9.2,-0.2 18.5,0.5 27.5,2.8c4.5,1.2 8.9,2.8 13.1,5.1s8.1,5.1 11.4,8.6c3.3,3.5 6,7.4 8.1,11.7c2.1,4.3 3.6,8.8 4.7,13.3c1.1,4.6 1.8,9.1 2.4,13.6c0.3,2.3 0.6,4.5 1.1,6.6c0.2,1.1 0.5,2.1 0.8,2.9l0.3,0.6l0.1,0.1l0.1,0.1l0.2,0.4l0.9,1.5c4.4,8.1 7.7,17 8.9,26.3c0.6,4.6 0.7,9.3 0.2,14c-0.5,4.6 -1.7,9.2 -3.5,13.5c-0.9,2.1 -1.9,4.2 -3.1,6.3l-0.9,1.5c-0.3,0.5 -0.6,0.9 -1,1.5c-0.1,0.1 -0.1,0.2 -0.2,0.3c-0.3,-0.2 0.4,0.7 -1.6,0c-0.5,-0.9 -0.2,-0.7 -0.3,-0.9c0,-0.3 0.1,-0.4 0.1,-0.6l0.3,-0.9l0.5,-1.6c1.4,-4.3 2.6,-8.6 3.1,-13.1c0.2,-2.2 0.3,-4.4 0,-6.7c-0.3,-2.2 -0.9,-4.3 -2,-6.1c-0.3,-0.5 -0.6,-0.9 -1,-1.3s-0.7,-0.8 -1.1,-1.2c-0.8,-0.8 -1.6,-1.5 -2.5,-2.2c-1.8,-1.4 -3.7,-2.5 -5.7,-3.5c-4.1,-1.8 -8.6,-2.5 -13,-2.3c-4.5,0.2 -8.9,1.1 -13.2,2.3c-2.2,0.6 -4.3,1.3 -6.5,2c-1.1,0.4 -2.2,0.7 -3.3,1c-0.6,0.2 -1.1,0.3 -1.8,0.4c-0.6,0.1 -1.1,0.2 -1.7,0.2c-4.6,0.5 -9.1,0.8 -13.8,0.7c-4.6,-0.1 -9.2,-0.6 -13.8,-1.6c-4.5,-1 -9,-2.5 -13.2,-4.4c-4.2,-2 -8.2,-4.4 -11.8,-7.4c-3.6,-3 -6.8,-6.4 -9.6,-10.1c-5.6,-7.5 -9.3,-16.2 -11.1,-25.3c-0.9,-4.6 -1.3,-9.2 -1.1,-13.9c0.1,-2.3 0.4,-4.7 0.9,-7c0.6,-1.8 1.4,-4.1 2.7,-6.2zm2,1.3c-1.1,1.8 -1.8,3.8 -2.3,6c-0.5,2.1 -0.7,4.3 -0.9,6.5c-0.2,4.4 0.3,8.9 1.2,13.2c1.9,8.7 5.6,17 11,24c2.7,3.5 5.8,6.7 9.2,9.5c3.4,2.8 7.2,5.2 11.2,7.1c4,1.9 8.2,3.3 12.6,4.3c4.3,1 8.8,1.6 13.2,1.7c4.5,0.2 8.9,0 13.4,-0.5l1.7,-0.2c0.5,-0.1 1,-0.2 1.6,-0.3c1.1,-0.3 2.1,-0.6 3.2,-0.9c2.2,-0.6 4.4,-1.3 6.6,-1.8c4.4,-1.1 9,-1.9 13.7,-1.9c4.6,0 9.3,0.8 13.5,2.8c2.1,1 4.1,2.2 5.9,3.6c0.9,0.7 1.8,1.5 2.6,2.3l1.2,1.2c0.4,0.4 0.8,0.9 1.1,1.4c1.3,2 2,4.3 2.3,6.7s0.3,4.7 0.1,7c-0.4,4.6 -1.4,9.1 -2.7,13.5l-0.5,1.6l-0.2,0.8c0,0.1 -0.1,0.3 0,0.3c-0.1,-0.1 0.2,0.2 -0.2,-0.7c-1.9,-0.7 -1.2,0.2 -1.4,-0.1c0.2,-0.4 0.5,-0.9 0.8,-1.4c0.3,-0.5 0.5,-1 0.8,-1.5c1,-2 1.9,-4 2.7,-6.1c3,-8.3 3.6,-17.4 2.1,-26.1c-0.7,-4.4 -2,-8.6 -3.6,-12.7s-3.5,-8.1 -5.7,-12l-0.8,-1.4l-0.2,-0.4l-0.1,-0.2l-0.1,-0.2c-0.2,-0.3 -0.3,-0.6 -0.4,-0.9c-0.5,-1.2 -0.8,-2.5 -1.1,-3.6c-0.5,-2.3 -0.9,-4.6 -1.2,-6.8c-0.7,-4.5 -1.3,-8.9 -2.4,-13.2c-1,-4.3 -2.4,-8.5 -4.3,-12.4c-1.9,-3.9 -4.2,-7.5 -7.2,-10.7c-5.8,-6.3 -13.8,-10.5 -22.3,-13s-17.5,-3.3 -26.5,-3.3c-8.9,0 -17.9,1.1 -26.3,3.9c-4.2,1.4 -8.2,3.3 -11.9,5.8c-3.8,2.4 -7,5.4 -9.4,9.1z" fill="#E5BFA1"/>
  <path id="svg_80" d="m75.6,41.2c1.5,-2.4 3.3,-4.3 5.1,-6.1c1.9,-1.8 3.9,-3.3 6,-4.7c4.2,-2.8 8.7,-5 13.4,-6.7c9.4,-3.3 19.3,-4.6 29.1,-4.4c9.7,0.3 19.5,1.5 28.9,4.9c4.7,1.7 9.2,3.9 13.3,6.9c4.1,2.9 7.7,6.5 10.7,10.6c2.9,4.1 5.1,8.6 6.8,13.3c1.6,4.7 2.7,9.5 3.5,14.2c0.4,2.4 0.7,4.7 1.1,7.1c0.4,2.3 0.7,4.7 1.1,6.8c0.2,1.1 0.5,2.1 0.9,2.9l0.1,0.2l0.1,0.2l0.2,0.4l0.4,0.8l0.9,1.6c1.1,2.1 2.2,4.3 3.2,6.5c1.9,4.4 3.5,9.1 4.6,13.9c1.1,4.7 1.6,9.6 1.6,14.5c-0.1,9.8 -2.8,19.5 -7.9,27.8c-0.4,0.6 -1.2,0.9 -1.8,0.5c-0.6,-0.4 -0.8,-1.1 -0.6,-1.6c1.4,-3.6 2.9,-7 4,-10.5c1.2,-3.5 2,-7.1 2,-10.6s-0.9,-6.9 -3,-9.6c-0.1,-0.2 -0.3,-0.4 -0.4,-0.5l-0.2,-0.2l-0.2,-0.3l-0.9,-0.9c-0.6,-0.6 -1.3,-1.2 -2,-1.7c-1.4,-1.1 -3,-2.1 -4.5,-3.1c-6.3,-3.9 -13,-7.3 -19.8,-10.7c-6.8,-3.3 -13.7,-6.5 -20.5,-9.6c-13.8,-6.3 -27.6,-12.6 -41.2,-19.4c-6.8,-3.5 -13.5,-7 -20.1,-11.2c-3.5,-2.5 -6.7,-4.7 -9.8,-7.5c-1.5,-1.4 -3,-3 -4.2,-5.2c-0.6,-1.1 -1.1,-2.4 -1.2,-4c0,-0.8 0,-1.6 0.2,-2.4c0.1,-0.4 0.2,-0.8 0.4,-1.2c0.1,-0.3 0.4,-0.9 0.5,-1l0.2,0zm5.6,3.4c-0.2,0.3 -0.1,0.2 -0.2,0.3c0,0.1 0,0.1 -0.1,0.2l0,0.4c0,0.3 0.2,0.8 0.4,1.4c0.6,1.2 1.7,2.5 2.9,3.6c2.5,2.4 5.4,4.6 8.5,6.6c6.1,4.1 12.7,7.7 19.4,11.3c13.3,7 27,13.5 40.6,20.1c6.8,3.3 13.6,6.7 20.4,10.1c6.8,3.5 13.5,7 20,11.3c1.6,1.1 3.2,2.2 4.7,3.5c0.8,0.6 1.5,1.3 2.3,2c0.4,0.4 0.7,0.7 1.1,1.2l0.2,0.3l0.3,0.3c0.2,0.2 0.3,0.4 0.5,0.6c1.2,1.7 2.1,3.6 2.7,5.6s0.7,4.1 0.7,6.1c-0.1,4 -1.2,7.9 -2.5,11.6c-1.3,3.7 -2.9,7.1 -4.4,10.6l-2.4,-1.2c4.7,-8 6.9,-17.2 6.8,-26.4c-0.2,-9.2 -2.6,-18.3 -6.5,-26.7c-1,-2.1 -2,-4.2 -3.2,-6.2l-1.8,-3.2c-0.7,-1.3 -1,-2.6 -1.3,-3.8c-0.6,-2.5 -1,-4.8 -1.4,-7.2s-0.8,-4.7 -1.2,-6.9c-0.9,-4.6 -2,-9 -3.6,-13.3c-1.6,-4.2 -3.7,-8.3 -6.3,-11.8c-2.6,-3.6 -5.9,-6.7 -9.5,-9.2c-3.7,-2.5 -7.7,-4.5 -12,-5.9c-8.6,-2.9 -17.8,-3.9 -27,-4c-4.6,0 -9.1,0.2 -13.6,1c-4.5,0.7 -8.9,1.8 -13.1,3.3s-8.3,3.4 -12,5.8c-1.9,1.2 -3.6,2.5 -5.2,4s-3.1,3 -4.2,4.6z" fill="#895B2E"/>
  <path id="svg_81" d="m77.8,42.3c-11,17 2.1,82.3 71.2,73.5c7.3,-0.9 31.6,-13.9 48,4.3c8.9,10 -3.1,35.3 0,30c3.5,-5.8 16.9,-28.2 -3.2,-62.7c-6.4,-11.1 4.2,-64.4 -65,-65.1c-26.5,-0.1 -43.7,8.7 -51,20" fill="#BA8449"/>
  <g id="svg_82" clip-path="url(#z)" opacity="0.15">
   <path id="svg_83" d="m75.968,46.433c19.9,-12.8 80.1,-11.9 99.3,18.8c12.8,20.4 -10.6,70.8 -19.3,77.2c-8.6,6.4 -20.6,12 -52.2,4.4c-26.8,-6.4 13.5,-31.3 -17.9,-34.9c-28.7,-3.3 -31.6,-51.5 -9.9,-65.5" fill="#E3AB5E"/>
  </g>
  <g id="svg_84" clip-path="url(#B)" opacity="0.25">
   <path id="svg_85" d="m131.6,95.966c0,1.5 -2.9,2.8 -6.5,2.8s-6.5,-1.2 -6.5,-2.8c0,-1.5 2.9,-2.8 6.5,-2.8c3.6,0.1 6.5,1.3 6.5,2.8" fill="#E3AB5E"/>
  </g>
  <path id="svg_86" d="m120.1,87.8c1.5,-1 9.5,-0.7 10.5,0.4c1,1 3.2,5.2 0.7,7c-0.9,0.6 -0.9,-1.9 -2.9,-1.5c-2.4,0.5 -1.1,3.6 -3,3.6c-2.9,-0.1 -0.1,-3.4 -2.6,-3.8c-1.9,-0.4 -2.3,1.5 -3.2,1.3c-2.9,-0.6 -1.6,-5.6 0.5,-7" fill="#F8A38F"/>
  <g id="svg_87" clip-path="url(#D)">
   <path id="svg_88" d="m124.42,87.205c-1.9,0 -3.7,0.2 -4.3,0.6c-2.1,1.4 -3.4,6.4 -0.6,6.9l0.1,0c0.7,0 1.1,-1.4 2.6,-1.4l0.5,0c2.5,0.4 -0.2,3.8 2.6,3.8c1.8,0 0.5,-3 3,-3.5l0.4,0c1.4,0 1.6,1.6 2.2,1.6c0.1,0 0.2,0 0.3,-0.1c2.6,-1.8 0.4,-6 -0.7,-7c-0.5,-0.5 -3.4,-0.9 -6.1,-0.9m0,0.7c3,0 5.3,0.4 5.7,0.7c0.6,0.6 1.8,2.8 1.6,4.4c-0.1,0.6 -0.3,1.1 -0.7,1.4c0,-0.1 -0.1,-0.1 -0.2,-0.2c-0.4,-0.5 -1,-1.3 -2.1,-1.3c-0.2,0 -0.4,0 -0.5,0.1c-1.7,0.4 -2,1.7 -2.3,2.6c-0.2,0.9 -0.3,0.9 -0.6,0.9c-0.8,0 -0.8,-0.2 -0.8,-1.1c0,-0.9 0,-2.3 -1.8,-2.6l-0.6,0c-1.1,0 -1.8,0.7 -2.3,1.1c-0.1,0.1 -0.3,0.3 -0.4,0.3c-0.4,-0.1 -0.8,-0.3 -1,-1.1c-0.3,-1.4 0.7,-3.8 1.8,-4.6c0.6,-0.4 2,-0.6 4.2,-0.6" fill="#F8A38F"/>
  </g>
  <g id="svg_89" clip-path="url(#F)" opacity="0.25">
   <path id="svg_90" d="m186.799,114.05c3,19.2 -21,43.3 -53.3,48.3c-32.3,4.9 -56.1,-23.9 -59.1,-43.2c-3,-19.2 16.8,-11.9 49.1,-16.8s60.3,-7.5 63.3,11.7" fill="#F7E8D0"/>
  </g>
  <g id="svg_91" clip-path="url(#H)" opacity="0.5">
   <path id="svg_92" d="m102.515,143.277c-0.9,-1.4 -1.4,-3.1 -1.9,-4.7l-1.5,-4.8c-1,-3.2 -2.1,-6.4 -3.6,-9.4s-3.4,-5.8 -5.8,-7.9c-2.4,-2.1 -5.3,-3.5 -8.4,-4.1c-1.1,-0.4 -1.6,-1.5 -1.2,-2.5c0.4,-1 1.4,-1.5 2.3,-1.3c7.2,1.7 14.7,2.5 22.1,2.6s15,-0.3 22.5,-1.2c7.5,-0.9 14.9,-2.2 22.2,-3.9c7.3,-1.7 14.6,-3.7 21.7,-6.1c1.1,-0.4 2.2,0.2 2.5,1.2c0.3,0.8 0,1.6 -0.6,2.1c-0.2,0.2 -0.6,0.5 -0.9,0.8c-0.3,0.3 -0.6,0.7 -0.9,1c-0.6,0.7 -1.2,1.5 -1.8,2.3c-1.2,1.6 -2.3,3.2 -3.3,4.9c-2.2,3.3 -4.2,6.7 -6.1,10.2c-1.9,3.5 -3.8,7 -5.5,10.5c-0.9,1.8 -1.7,3.6 -2.4,5.4c-0.4,0.9 -0.7,1.8 -1.1,2.8c-0.2,0.5 -0.3,0.9 -0.4,1.4l0,0.2c0,0.1 0,0.1 -0.1,0.2c0,0.1 -0.1,0.2 -0.2,0.2c-0.1,0.1 -0.2,0.2 -0.4,0.3c-0.2,0.2 -0.5,0.3 -0.7,0.4c-1.9,0.8 -3.9,1.2 -5.8,1.6c-1.9,0.4 -3.9,0.7 -5.9,0.9c-4,0.5 -7.9,0.9 -11.9,1c-4,0.2 -8,0.2 -11.9,-0.2c-2,-0.2 -4,-0.5 -5.9,-1c-1,-0.3 -1.9,-0.6 -2.8,-1.1c-0.9,-0.4 -1.7,-1 -2.3,-1.8m0.1,-0.1c0.5,0.8 1.4,1.4 2.3,1.8c0.9,0.4 1.8,0.7 2.8,1c1.9,0.5 3.9,0.8 5.9,0.9c4,0.3 7.9,0.3 11.9,0.1c4,-0.2 7.9,-0.7 11.8,-1.2c1.9,-0.3 3.9,-0.6 5.8,-1.1s3.9,-0.9 5.6,-1.7c0.2,-0.1 0.4,-0.2 0.6,-0.4c0.2,-0.1 0.3,-0.2 0.3,-0.3c0.1,-0.5 0.2,-1 0.4,-1.5c0.3,-1 0.6,-1.9 0.9,-2.9c0.7,-1.9 1.4,-3.7 2.2,-5.6c1.6,-3.7 3.2,-7.3 4.9,-10.9c1.7,-3.6 3.5,-7.2 5.4,-10.7c0.9,-1.8 1.9,-3.5 3,-5.3c0.5,-0.9 1.1,-1.8 1.7,-2.6c0.3,-0.4 0.6,-0.9 0.9,-1.3c0.4,-0.4 0.7,-0.9 1.2,-1.3l1.9,3.4c-7.3,2.5 -14.6,4.5 -22.1,6.2c-7.5,1.7 -15,3.1 -22.6,4c-7.6,0.9 -15.3,1.4 -23,1.2s-15.4,-1.1 -23,-2.9l1.1,-4c3.3,2 6.3,3.9 8.6,6.6c2.3,2.7 3.9,5.8 5.2,9c1.2,3.2 2.2,6.5 3,9.7c0.4,1.6 0.9,3.3 1.3,4.9c0.6,1.9 1.1,3.5 2,4.9" fill="#D8CAB2"/>
  </g>
  <g id="svg_93" clip-path="url(#J)" opacity="0.5">
   <path id="svg_94" d="m102.532,143.288c-0.9,-1.4 -1.4,-3 -1.9,-4.6c-0.5,-1.6 -0.9,-3.2 -1.4,-4.8c-1,-3.2 -2,-6.4 -3.5,-9.5c-1.4,-3 -3.3,-5.8 -5.6,-8c-2.4,-2.3 -5.3,-3.9 -8.4,-4.6l0,-0.1c-0.5,-0.2 -0.8,-0.8 -0.6,-1.3c0.2,-0.5 0.7,-0.8 1.2,-0.7c7.3,1.7 14.8,2.5 22.4,2.6s15.1,-0.3 22.6,-1.2c7.5,-0.9 14.9,-2.3 22.3,-3.9c7.4,-1.7 14.7,-3.7 21.8,-6.1c0.5,-0.2 1.1,0.1 1.3,0.6c0.1,0.4 0,0.8 -0.3,1.1c-0.6,0.5 -1.3,1.3 -1.9,2c-0.6,0.7 -1.2,1.6 -1.8,2.3c-1.1,1.6 -2.2,3.3 -3.2,5c-2.1,3.3 -4.1,6.8 -6,10.3c-1.9,3.5 -3.7,7 -5.3,10.6l-2.4,5.4c-0.4,0.9 -0.7,1.8 -1,2.8c-0.2,0.5 -0.3,0.9 -0.4,1.4c-0.1,0.4 -0.4,0.5 -0.6,0.7c-0.2,0.2 -0.5,0.3 -0.7,0.4c-1.9,0.8 -3.9,1.2 -5.8,1.6c-1.9,0.4 -3.9,0.7 -5.9,1c-3.9,0.5 -7.9,0.9 -11.9,1.1c-4,0.2 -8,0.2 -11.9,-0.2c-2,-0.2 -4,-0.5 -5.9,-1c-1,-0.3 -1.9,-0.6 -2.8,-1c-1,-0.5 -1.9,-1.1 -2.4,-1.9m0,-0.1c0.5,0.8 1.4,1.4 2.3,1.9c0.9,0.4 1.8,0.7 2.8,1c1.9,0.5 3.9,0.8 5.9,0.9c4,0.4 7.9,0.3 11.9,0.1c4,-0.2 7.9,-0.6 11.9,-1.2c1.9,-0.3 3.9,-0.6 5.9,-1.1c1.9,-0.4 3.9,-0.9 5.6,-1.7c0.2,-0.1 0.4,-0.2 0.6,-0.4c0.2,-0.1 0.4,-0.3 0.4,-0.4c0.1,-0.5 0.2,-1 0.4,-1.5c0.3,-1 0.6,-1.9 1,-2.8c0.7,-1.9 1.5,-3.7 2.3,-5.5c1.6,-3.7 3.3,-7.2 5.1,-10.8c1.8,-3.6 3.6,-7.1 5.6,-10.6c1,-1.8 2,-3.5 3.1,-5.1c0.5,-0.9 1.1,-1.7 1.7,-2.5c0.6,-0.8 1.2,-1.6 2.1,-2.4l1,1.8c-7.2,2.5 -14.6,4.5 -22,6.2s-14.9,3 -22.5,4c-7.6,0.9 -15.2,1.4 -22.9,1.2c-7.6,-0.2 -15.3,-1 -22.8,-2.7l0.5,-1.9c3.3,1.3 6.3,3.3 8.6,5.9c2.3,2.6 4,5.6 5.3,8.7c1.3,3.1 2.3,6.3 3.2,9.6c0.4,1.6 0.9,3.2 1.4,4.9c0.2,1.4 0.7,3 1.6,4.4" fill="#D8CAB2"/>
  </g>
  <path id="svg_95" d="m102.6,143.2c5.1,8 46.8,2.5 47.5,-0.7c1.8,-8.1 16.8,-36.7 21.6,-40.7c-8.6,3 -53.3,17.3 -89.6,8.6c16.3,5.5 16.5,26.6 20.5,32.8" fill="#333"/>
  <g id="svg_96">
   <defs transform="translate(0,-1) translate(0,-1) translate(0,-1) translate(0,-1) translate(0,-1) translate(0,-1) translate(0,-1) translate(0,-1) translate(0,-1) translate(0,-1) translate(0,-1) translate(0,-1) translate(0,-1) translate(0,-1) translate(0,-1) translate(0,-1) translate(0,-1) translate(0,-1) translate(0,-1) translate(0,-1) translate(0,-1) translate(0,-1) translate(0,-1) translate(0,-1) translate(0,-1) translate(0,-1) ">
    <path d="m82,127.9l89.6,0l0,45.4l-89.6,0l0,-45.4z" id="K"/>
   </defs>
   <clipPath transform="translate(0,-1) translate(0,-1) translate(0,-1) translate(0,-1) translate(0,-1) translate(0,-1) translate(0,-1) translate(0,-1) translate(0,-1) translate(0,-1) translate(0,-1) translate(0,-1) translate(0,-1) translate(0,-1) translate(0,-1) translate(0,-1) translate(0,-1) translate(0,-1) translate(0,-1) translate(0,-1) translate(0,-1) translate(0,-1) translate(0,-1) translate(0,-1) translate(0,-1) translate(0,-1) " id="L">
    <use x="0" y="-26" id="svg_97" xlink:href="#K"/>
   </clipPath>
   <g id="svg_98" clip-path="url(#L)">
    <path id="svg_99" d="m171.55,101.95c-6.7,2.3 -34.9,11.4 -64.1,11.4c-8.6,0 -17.2,-0.8 -25.5,-2.7c16.4,5.3 16.6,26.5 20.6,32.7c1.9,3 9.2,4.1 17.5,4.1c13.4,0 29.5,-2.8 30,-4.8c1.8,-8.2 16.7,-36.8 21.5,-40.7m-5.6,3.9c-6.5,9.8 -15.9,28.7 -17.8,35.8c-2.5,1.4 -15.4,3.8 -28.1,3.8c-10.2,0 -14.8,-1.7 -15.8,-3.2c-1,-1.5 -1.8,-4.3 -2.6,-7.5c-1.7,-6.1 -4.1,-14.5 -9.8,-20.3c5,0.6 10.2,0.9 15.7,0.9c23.8,-0.1 47.1,-6.1 58.4,-9.5" fill="#333"/>
   </g>
  </g>
  <path id="svg_100" d="m119.7,147.4c-8.6,0 -14.2,-1.2 -16.4,-3.6c-0.2,-0.2 -0.2,-1.4 0.8,-3.7c2.4,-5.5 9.8,-14.9 22.6,-15.7c0.9,0 1.7,-0.1 2.5,-0.1c15,0 24,7.6 24,8.9c-0.2,0.4 -0.4,1 -0.7,1.8c-0.8,1.9 -2,4.9 -3.1,8.1c-1.3,1.3 -16.3,4.3 -29.7,4.3" fill="#FCD4C3"/>
  <path id="svg_101" d="m129.2,123.8c-0.9,0 -1.7,0 -2.6,0.1c-17.5,1.1 -25.6,18.4 -23.8,20.5c2.6,2.8 9.3,3.8 16.9,3.8c13.5,0 29.8,-3.1 30.3,-4.6c1.5,-4.5 3.2,-8.2 3.9,-10c0.6,-1.8 -9.5,-9.9 -24.7,-9.8m0,1.3c13.4,0 22.4,6.4 23.3,8.3c-0.2,0.4 -0.4,0.9 -0.6,1.5c-0.8,1.9 -2,4.7 -3.1,7.9c-2.1,1.2 -16.1,3.9 -29.1,3.9c-8.1,0 -13.7,-1.2 -15.8,-3.3c-0.1,-0.7 0.6,-3.5 3.1,-7c2.2,-3.2 8.6,-10.7 19.7,-11.3l2.5,0" fill="#F8A38F"/>
  <g id="svg_102">
   <defs transform="translate(0,-1) translate(0,-1) translate(0,-1) translate(0,-1) translate(0,-1) translate(0,-1) translate(0,-1) translate(0,-1) translate(0,-1) translate(0,-1) translate(0,-1) translate(0,-1) translate(0,-1) translate(0,-1) translate(0,-1) translate(0,-1) translate(0,-1) translate(0,-1) translate(0,-1) translate(0,-1) translate(0,-1) translate(0,-1) translate(0,-1) translate(0,-1) translate(0,-1) translate(0,-1) ">
    <path d="m103.1,149.4l50.2,0l0,20.7l-50.2,0l0,-20.7z" id="M"/>
   </defs>
   <clipPath transform="translate(0,-1) translate(0,-1) translate(0,-1) translate(0,-1) translate(0,-1) translate(0,-1) translate(0,-1) translate(0,-1) translate(0,-1) translate(0,-1) translate(0,-1) translate(0,-1) translate(0,-1) translate(0,-1) translate(0,-1) translate(0,-1) translate(0,-1) translate(0,-1) translate(0,-1) translate(0,-1) translate(0,-1) translate(0,-1) translate(0,-1) translate(0,-1) translate(0,-1) translate(0,-1) " id="N">
    <use x="0" y="-26" id="svg_103" xlink:href="#M"/>
   </clipPath>
   <g id="svg_104" clip-path="url(#N)">
    <path id="svg_105" d="m103.084,143.317c-1.2,5.4 31.9,-21.1 49.7,-8.4c3.7,-4.9 -16,-13.2 -27.5,-11.3c-9.7,1.7 -19.7,7.9 -22.2,19.7" fill="#FCD4C3"/>
   </g>
  </g>
  <path id="svg_106" d="m109.8,114.8c1.7,3 4.8,17.6 6.1,17.9s9.5,2.6 10.6,2.1c1.2,-0.5 1.1,-3.3 2.3,-2.5c1,0.7 1.5,2 2.5,1.5c1.8,-0.9 7.1,-4.2 8,-5.6c0.8,-1.5 0.7,-9.8 0,-16.4c-3.4,1.6 -23.5,3.7 -29.5,3" fill="#FFF7E3"/>
  <g id="svg_107">
   <defs transform="translate(0,-1) translate(0,-1) translate(0,-1) translate(0,-1) translate(0,-1) translate(0,-1) translate(0,-1) translate(0,-1) translate(0,-1) translate(0,-1) translate(0,-1) translate(0,-1) translate(0,-1) translate(0,-1) translate(0,-1) translate(0,-1) translate(0,-1) translate(0,-1) translate(0,-1) translate(0,-1) translate(0,-1) translate(0,-1) translate(0,-1) translate(0,-1) translate(0,-1) translate(0,-1) ">
    <path d="m109.8,137.9l30.1,0l0,23.2l-30.1,0l0,-23.2z" id="O"/>
   </defs>
   <clipPath transform="translate(0,-1) translate(0,-1) translate(0,-1) translate(0,-1) translate(0,-1) translate(0,-1) translate(0,-1) translate(0,-1) translate(0,-1) translate(0,-1) translate(0,-1) translate(0,-1) translate(0,-1) translate(0,-1) translate(0,-1) translate(0,-1) translate(0,-1) translate(0,-1) translate(0,-1) translate(0,-1) translate(0,-1) translate(0,-1) translate(0,-1) translate(0,-1) translate(0,-1) translate(0,-1) " id="P">
    <use x="0" y="-26" id="svg_108" xlink:href="#O"/>
   </clipPath>
   <g id="svg_109" clip-path="url(#P)">
    <path id="svg_110" d="m139.35,111.85c-3,1.3 -18.7,3.1 -26.6,3.1c-1.2,0 -2.1,0 -2.9,-0.1c1.7,3 4.8,17.6 6.1,17.9c1.2,0.3 8,2.2 10.1,2.2c0.2,0 0.4,0 0.5,-0.1c1,-0.4 1.1,-2.6 1.9,-2.6c0.1,0 0.3,0 0.4,0.2c0.9,0.5 1.3,1.6 2.1,1.6c0.1,0 0.3,0 0.4,-0.1c1.8,-0.9 7.1,-4.2 8,-5.6c0.9,-1.5 0.7,-9.8 0,-16.5m-0.5,0.9c0.6,6.8 0.6,14 0,15.2c-0.7,1.2 -5.5,4.3 -7.7,5.4l-0.1,0c-0.2,0 -0.5,-0.3 -0.7,-0.6c-0.3,-0.3 -0.6,-0.6 -1,-0.9c-0.3,-0.2 -0.5,-0.3 -0.8,-0.3c-0.9,0 -1.2,0.9 -1.5,1.6c-0.2,0.4 -0.4,1 -0.7,1.1l-0.3,0c-1.7,0 -6.8,-1.4 -8.9,-1.9c-0.4,-0.1 -0.7,-0.2 -0.9,-0.2c-0.6,-0.7 -1.9,-5.4 -2.9,-8.8c-0.9,-3.1 -1.7,-6 -2.4,-7.7l1.9,0c7.5,0 21.5,-1.6 26,-2.9" fill="#FFDC99"/>
   </g>
  </g>
  <g id="svg_111">
   <defs transform="translate(0,-1) translate(0,-1) translate(0,-1) translate(0,-1) translate(0,-1) translate(0,-1) translate(0,-1) translate(0,-1) translate(0,-1) translate(0,-1) translate(0,-1) translate(0,-1) translate(0,-1) translate(0,-1) translate(0,-1) translate(0,-1) translate(0,-1) translate(0,-1) translate(0,-1) translate(0,-1) translate(0,-1) translate(0,-1) translate(0,-1) translate(0,-1) translate(0,-1) translate(0,-1) ">
    <path d="m109.9,137.5l29.7,0l0,10.3l-29.7,0l0,-10.3z" id="Q"/>
   </defs>
   <clipPath transform="translate(0,-1) translate(0,-1) translate(0,-1) translate(0,-1) translate(0,-1) translate(0,-1) translate(0,-1) translate(0,-1) translate(0,-1) translate(0,-1) translate(0,-1) translate(0,-1) translate(0,-1) translate(0,-1) translate(0,-1) translate(0,-1) translate(0,-1) translate(0,-1) translate(0,-1) translate(0,-1) translate(0,-1) translate(0,-1) translate(0,-1) translate(0,-1) translate(0,-1) translate(0,-1) " id="R">
    <use x="0" y="-26" id="svg_112" xlink:href="#Q"/>
   </clipPath>
   <g id="svg_113" clip-path="url(#R)">
    <path id="svg_114" d="m112.151,121.85c-0.5,-5.4 24.4,-7.2 27.5,-6.7c0,-1.3 -0.2,-2.1 -0.2,-3.6c-4.1,2.1 -26.5,4.3 -29.5,3.4c0.3,0.6 1.4,3.6 2.2,6.9" fill="#EADCBE"/>
   </g>
  </g>
  <g id="svg_115">
   <defs transform="translate(0,-1) translate(0,-1) translate(0,-1) translate(0,-1) translate(0,-1) translate(0,-1) translate(0,-1) translate(0,-1) translate(0,-1) translate(0,-1) translate(0,-1) translate(0,-1) translate(0,-1) translate(0,-1) translate(0,-1) translate(0,-1) translate(0,-1) translate(0,-1) translate(0,-1) translate(0,-1) translate(0,-1) translate(0,-1) translate(0,-1) translate(0,-1) translate(0,-1) translate(0,-1) ">
    <path d="m124,143.8l5.5,0l0,14.7l-5.5,0l0,-14.7z" id="S"/>
   </defs>
   <clipPath transform="translate(0,-1) translate(0,-1) translate(0,-1) translate(0,-1) translate(0,-1) translate(0,-1) translate(0,-1) translate(0,-1) translate(0,-1) translate(0,-1) translate(0,-1) translate(0,-1) translate(0,-1) translate(0,-1) translate(0,-1) translate(0,-1) translate(0,-1) translate(0,-1) translate(0,-1) translate(0,-1) translate(0,-1) translate(0,-1) translate(0,-1) translate(0,-1) translate(0,-1) translate(0,-1) " id="T">
    <use x="0" y="-26" id="svg_116" xlink:href="#S"/>
   </clipPath>
   <g id="svg_117" clip-path="url(#T)">
    <path id="svg_118" d="m124.558,117.768c0.5,1.2 1,2.3 1.4,3.5l1.2,3.6l1.1,3.6l1.1,3.6l-1.7,0.5l-0.8,-3.7l-0.9,-3.7l-0.9,-3.6c-0.4,-1.2 -0.7,-2.4 -1.1,-3.5l0.6,-0.3z" fill="#FFDC99"/>
   </g>
  </g>
  <g id="svg_119">
   <defs transform="translate(0,-1) translate(0,-1) translate(0,-1) translate(0,-1) translate(0,-1) translate(0,-1) translate(0,-1) translate(0,-1) translate(0,-1) translate(0,-1) translate(0,-1) translate(0,-1) translate(0,-1) translate(0,-1) translate(0,-1) translate(0,-1) translate(0,-1) translate(0,-1) translate(0,-1) translate(0,-1) translate(0,-1) translate(0,-1) translate(0,-1) translate(0,-1) translate(0,-1) translate(0,-1) ">
    <path d="m39.1,51.5l39.4,0l0,35.7l-39.4,0l0,-35.7z" id="U"/>
   </defs>
   <clipPath transform="translate(0,-1) translate(0,-1) translate(0,-1) translate(0,-1) translate(0,-1) translate(0,-1) translate(0,-1) translate(0,-1) translate(0,-1) translate(0,-1) translate(0,-1) translate(0,-1) translate(0,-1) translate(0,-1) translate(0,-1) translate(0,-1) translate(0,-1) translate(0,-1) translate(0,-1) translate(0,-1) translate(0,-1) translate(0,-1) translate(0,-1) translate(0,-1) translate(0,-1) translate(0,-1) " id="V">
    <use x="0" y="-26" id="svg_120" xlink:href="#U"/>
   </clipPath>
   <g id="svg_121" clip-path="url(#V)" opacity="0.4">
    <path id="svg_122" d="m40.384,33.116c13.2,3.4 11.1,26.2 18.9,28c7.9,1.8 18.2,-18.8 19.2,-23.3c-15.2,-6.5 -22.3,-14.1 -33.2,-11.9c-3.6,0.7 -8.6,6.2 -4.9,7.2" fill="#FCD4C3"/>
   </g>
  </g>
  <g id="svg_123">
   <defs transform="translate(0,-1) translate(0,-1) translate(0,-1) translate(0,-1) translate(0,-1) translate(0,-1) translate(0,-1) translate(0,-1) translate(0,-1) translate(0,-1) translate(0,-1) translate(0,-1) translate(0,-1) translate(0,-1) translate(0,-1) translate(0,-1) translate(0,-1) translate(0,-1) translate(0,-1) translate(0,-1) translate(0,-1) translate(0,-1) translate(0,-1) translate(0,-1) translate(0,-1) translate(0,-1) ">
    <path d="m59.9,88.7l133.7,0l0,42.5l-133.7,0l0,-42.5z" id="W"/>
   </defs>
   <clipPath transform="translate(0,-1) translate(0,-1) translate(0,-1) translate(0,-1) translate(0,-1) translate(0,-1) translate(0,-1) translate(0,-1) translate(0,-1) translate(0,-1) translate(0,-1) translate(0,-1) translate(0,-1) translate(0,-1) translate(0,-1) translate(0,-1) translate(0,-1) translate(0,-1) translate(0,-1) translate(0,-1) translate(0,-1) translate(0,-1) translate(0,-1) translate(0,-1) translate(0,-1) translate(0,-1) " id="X">
    <use x="0" y="-26" id="svg_124" xlink:href="#W"/>
   </clipPath>
   <g id="svg_125" clip-path="url(#X)" opacity="0.5">
    <path id="svg_126" d="m76.967,99.833c16.6,1.3 30.3,2 35.2,-3.1s6.7,-27.7 14.7,-27.1c6.8,0.5 9.1,29.9 13.5,30.7c4.4,0.9 35.5,9.4 43.3,1.4c7.7,-8 11.3,-13 9.5,-17.8c-1.8,-4.8 -47.3,-20.3 -56.6,-21.2c-9.3,-0.9 -72.1,7 -73.7,10.9c-1.6,4 -3.3,3.4 -3,7.6c0.6,8.1 0.5,17.3 17.1,18.6" fill="#E3AB5E"/>
   </g>
  </g>
  <path id="svg_127" d="m123.5,66.4c1.2,0 5.9,-0.4 7,0.5c6,4.7 5.8,24 12.1,30c5.6,5.4 36.2,9.3 41.5,3.2c5.3,-6.1 13.1,-24.7 14.9,-26.1c1.8,-1.3 5.8,-2.3 7,-4.2c1.2,-1.8 0.2,-10 -2.6,-9.6c-2.8,0.4 -8.1,2.1 -11.4,1.2c-3.3,-1 -19.4,-11.1 -59.9,-5c-3.9,0.6 -7.8,0 -10.5,-0.7s-17.9,-9.5 -58.6,-3.7c-4,0.6 -9.6,-1.2 -11.6,-1c-2,0.2 -2.6,6.5 -1.8,8.1s5,3 5.5,5s4.2,21.6 13.8,29.7c10.2,8.6 36.2,2.6 38.5,1c10.3,-7.3 12.6,-28.4 16.1,-28.4" fill="#333"/>
  <g id="svg_128">
   <defs transform="translate(0,-1) translate(0,-1) translate(0,-1) translate(0,-1) translate(0,-1) translate(0,-1) translate(0,-1) translate(0,-1) translate(0,-1) translate(0,-1) translate(0,-1) translate(0,-1) translate(0,-1) translate(0,-1) translate(0,-1) translate(0,-1) translate(0,-1) translate(0,-1) translate(0,-1) translate(0,-1) translate(0,-1) translate(0,-1) translate(0,-1) translate(0,-1) translate(0,-1) translate(0,-1) ">
    <path d="m49.1,76.1l157.3,0l0,53.1l-157.3,0l0,-53.1z" id="Y"/>
   </defs>
   <clipPath transform="translate(0,-1) translate(0,-1) translate(0,-1) translate(0,-1) translate(0,-1) translate(0,-1) translate(0,-1) translate(0,-1) translate(0,-1) translate(0,-1) translate(0,-1) translate(0,-1) translate(0,-1) translate(0,-1) translate(0,-1) translate(0,-1) translate(0,-1) translate(0,-1) translate(0,-1) translate(0,-1) translate(0,-1) translate(0,-1) translate(0,-1) translate(0,-1) translate(0,-1) translate(0,-1) " id="Z">
    <use x="0" y="-26" id="svg_129" xlink:href="#Y"/>
   </clipPath>
   <g id="svg_130" clip-path="url(#Z)">
    <path id="svg_131" d="m88.438,50.123c-7.1,0 -15.6,0.5 -25.6,2c-0.6,0.1 -1.2,0.1 -1.8,0.1c-3.5,0 -7.6,-1.1 -9.5,-1.1l-0.3,0c-2,0.2 -2.6,6.5 -1.8,8.1c0.8,1.7 5,3 5.5,5s4.2,21.6 13.8,29.7c4,3.4 10.6,4.5 17.2,4.5c10,0 19.9,-2.5 21.3,-3.5c10.4,-7.4 12.8,-28.5 16.3,-28.5c0.5,0 1.8,-0.1 3,-0.1c1.6,0 3.3,0.1 3.9,0.5c6,4.7 5.8,24 12.1,30c3.6,3.4 17.4,6.3 28.2,6.3c6.1,0 11.3,-0.9 13.2,-3.1c5.3,-6.1 13.1,-24.7 14.9,-26.1c1.8,-1.4 5.8,-2.3 7,-4.2c1.1,-1.8 0.2,-9.6 -2.5,-9.6l-0.2,0c-2.2,0.3 -6,1.4 -9.1,1.4c-0.8,0 -1.6,-0.1 -2.3,-0.3c-2.6,-0.8 -12.7,-6.9 -35.7,-6.9c-6.9,0 -14.9,0.5 -24.2,1.9c-1.1,0.2 -2.3,0.2 -3.3,0.2c-2.7,0 -5.2,-0.4 -7.1,-0.9c-2,-0.2 -11.2,-5.4 -33,-5.4m0,2c18.1,0 27.4,3.6 30.8,5c0.7,0.3 1.2,0.5 1.7,0.6c1.8,0.4 4.5,1 7.6,1c1.2,0 2.5,-0.1 3.6,-0.3c8.5,-1.3 16.5,-1.9 23.9,-1.9c19,0 28.9,4.2 33.2,6.1c0.9,0.4 1.5,0.6 2,0.8c0.9,0.3 1.8,0.4 2.9,0.4c2.2,0 4.6,-0.5 6.6,-0.9c0.9,-0.2 1.8,-0.4 2.5,-0.5c0.9,1 1.5,5.4 1,6.6c-0.4,0.6 -2.1,1.4 -3.3,1.9c-1.2,0.5 -2.3,1 -3.1,1.6c-1.1,0.8 -2.2,2.9 -5.4,9.3c-3.1,6.1 -6.9,13.7 -9.8,17c-1,1.2 -4.6,2.4 -11.8,2.4c-10.5,0 -23.9,-2.8 -26.9,-5.7c-2.8,-2.6 -4.2,-8.7 -5.6,-14.6c-1.6,-6.6 -3.1,-12.8 -6.6,-15.6c-0.9,-0.7 -2.3,-1 -5.1,-1l-3.1,0c-2.8,0 -4,3.3 -6.1,9.3c-2.3,6.6 -5.6,15.5 -11.3,19.6c-1.3,0.8 -10.7,3.2 -20.2,3.2c-7.3,0 -12.8,-1.4 -15.9,-4c-3.8,-3.2 -9.1,-10.7 -12.9,-27.8c-0.1,-0.4 -0.2,-0.7 -0.2,-0.9c-0.5,-1.9 -2.3,-3 -3.8,-4c-0.6,-0.4 -1.6,-1.1 -1.8,-1.4c-0.4,-0.9 0,-4.2 0.6,-5.3c0.7,0 1.7,0.2 2.8,0.4c1.9,0.3 4.3,0.7 6.5,0.7c0.7,0 1.5,0 2.1,-0.2c8.9,-1.1 17.4,-1.8 25.1,-1.8" fill="#1A1A1A"/>
   </g>
  </g>
  <g id="svg_132">
   <defs transform="translate(0,-1) translate(0,-1) translate(0,-1) translate(0,-1) translate(0,-1) translate(0,-1) translate(0,-1) translate(0,-1) translate(0,-1) translate(0,-1) translate(0,-1) translate(0,-1) translate(0,-1) translate(0,-1) translate(0,-1) translate(0,-1) translate(0,-1) translate(0,-1) translate(0,-1) translate(0,-1) translate(0,-1) translate(0,-1) translate(0,-1) translate(0,-1) translate(0,-1) translate(0,-1) ">
    <path d="m64.4,83.4l50.5,0l0,34.2l-50.5,0l0,-34.2z" id="aa"/>
   </defs>
   <clipPath transform="translate(0,-1) translate(0,-1) translate(0,-1) translate(0,-1) translate(0,-1) translate(0,-1) translate(0,-1) translate(0,-1) translate(0,-1) translate(0,-1) translate(0,-1) translate(0,-1) translate(0,-1) translate(0,-1) translate(0,-1) translate(0,-1) translate(0,-1) translate(0,-1) translate(0,-1) translate(0,-1) translate(0,-1) translate(0,-1) translate(0,-1) translate(0,-1) translate(0,-1) translate(0,-1) " id="ab">
    <use x="0" y="-26" id="svg_133" xlink:href="#aa"/>
   </clipPath>
   <g id="svg_134" clip-path="url(#ab)" opacity="0.5">
    <path id="svg_135" d="m66.2,64.45c-0.9,1.2 -1.5,18.9 6,23.7c4.9,3.2 25.7,2.5 29.9,0.2c6.5,-3.7 12.9,-20.5 11.1,-22.9c-3,-4 -24.6,-9.3 -40.8,-5.1c-2,0.4 -5.1,2.6 -6.2,4.1z" stroke-miterlimit="10" stroke-width="4" stroke="#333" fill="none"/>
   </g>
  </g>
  <path id="svg_136" d="m66.2,64.4c-0.9,1.2 -1.5,18.9 6,23.7c4.9,3.2 25.7,2.5 29.9,0.2c6.5,-3.7 12.9,-20.5 11.1,-22.9c-3,-4 -24.6,-9.3 -40.8,-5.1c-2,0.5 -5.1,2.6 -6.2,4.1" fill="#FFF"/>
  <g id="svg_137">
   <defs transform="translate(0,-1) translate(0,-1) translate(0,-1) translate(0,-1) translate(0,-1) translate(0,-1) translate(0,-1) translate(0,-1) translate(0,-1) translate(0,-1) translate(0,-1) translate(0,-1) translate(0,-1) translate(0,-1) translate(0,-1) translate(0,-1) translate(0,-1) translate(0,-1) translate(0,-1) translate(0,-1) translate(0,-1) translate(0,-1) translate(0,-1) translate(0,-1) translate(0,-1) translate(0,-1) ">
    <path d="m139.8,88.1l50.1,0l0,35l-50.1,0l0,-35z" id="ac"/>
   </defs>
   <clipPath transform="translate(0,-1) translate(0,-1) translate(0,-1) translate(0,-1) translate(0,-1) translate(0,-1) translate(0,-1) translate(0,-1) translate(0,-1) translate(0,-1) translate(0,-1) translate(0,-1) translate(0,-1) translate(0,-1) translate(0,-1) translate(0,-1) translate(0,-1) translate(0,-1) translate(0,-1) translate(0,-1) translate(0,-1) translate(0,-1) translate(0,-1) translate(0,-1) translate(0,-1) translate(0,-1) " id="ad">
    <use x="0" y="-26" id="svg_138" xlink:href="#ac"/>
   </clipPath>
   <g id="svg_139" clip-path="url(#ad)" opacity="0.5">
    <path id="svg_140" d="m188.394,72.163c0.8,1.3 -1,18.9 -9,22.8c-5.3,2.5 -25.8,-0.9 -29.6,-3.7c-6,-4.5 -10.2,-22 -8.1,-24.2c3.5,-3.6 25.6,-6 41.1,0.2c1.9,0.7 4.7,3.3 5.6,4.9z" stroke-miterlimit="10" stroke-width="4" stroke="#333" fill="none"/>
   </g>
  </g>
  <path id="svg_141" d="m188.4,72.2c0.8,1.3 -1,18.9 -9,22.8c-5.3,2.5 -25.8,-0.9 -29.6,-3.7c-6,-4.5 -10.2,-22 -8.1,-24.2c3.5,-3.6 25.6,-6 41.1,0.2c1.9,0.7 4.6,3.2 5.6,4.9" fill="#FFF"/>
  <path id="svg_142" d="m89.9,75.2c-0.5,3.9 -2.5,6.8 -4.4,6.5c-1.9,-0.3 -2.9,-3.6 -2.4,-7.5s2.5,-6.8 4.4,-6.5c1.9,0.3 2.9,3.6 2.4,7.5m79.7,4.4c0.4,3.9 -0.8,7.2 -2.6,7.4c-1.9,0.2 -3.7,-2.8 -4.1,-6.7c-0.4,-3.9 0.8,-7.2 2.6,-7.4c1.8,-0.1 3.6,2.9 4.1,6.7"/>
  <g id="svg_143">
   <defs transform="translate(0,-1) translate(0,-1) translate(0,-1) translate(0,-1) translate(0,-1) translate(0,-1) translate(0,-1) translate(0,-1) translate(0,-1) translate(0,-1) translate(0,-1) translate(0,-1) translate(0,-1) translate(0,-1) translate(0,-1) translate(0,-1) translate(0,-1) translate(0,-1) translate(0,-1) translate(0,-1) translate(0,-1) translate(0,-1) translate(0,-1) translate(0,-1) translate(0,-1) translate(0,-1) ">
    <path d="m49.1,81.6l156.3,0l0,46l-156.3,0l0,-46z" id="ae"/>
   </defs>
   <clipPath transform="translate(0,-1) translate(0,-1) translate(0,-1) translate(0,-1) translate(0,-1) translate(0,-1) translate(0,-1) translate(0,-1) translate(0,-1) translate(0,-1) translate(0,-1) translate(0,-1) translate(0,-1) translate(0,-1) translate(0,-1) translate(0,-1) translate(0,-1) translate(0,-1) translate(0,-1) translate(0,-1) translate(0,-1) translate(0,-1) translate(0,-1) translate(0,-1) translate(0,-1) translate(0,-1) " id="af">
    <use x="0" y="-26" id="svg_144" xlink:href="#ae"/>
   </clipPath>
   <g id="svg_145" clip-path="url(#af)" opacity="0.3">
    <path id="svg_146" d="m51.475,56.75c2.3,1.5 4.4,0.6 4.9,3.6s7.4,29 16,32c14.1,4.9 31.9,0.1 34.3,-1.4c2.4,-1.5 13.7,-26.8 15.6,-27.8c1.9,-1 7.9,0.1 9.2,0.7c3.9,1.7 11.1,29.1 13,30.5c8.7,6.1 36.6,5.6 37.9,4c1.4,-1.7 11.8,-25.6 13.7,-27c2.7,-2.1 9,-3.5 9.2,-2.6c0.2,0.9 -5.1,1.8 -6.7,3.7c-1.6,2 -12.1,24.9 -15.4,26.9c-3.3,2 -27.7,5.3 -40.1,-3.4c-5.9,-4.2 -8.2,-29.1 -12.9,-30.5c-3,-0.9 -5.3,-0.8 -7.5,-0.2c-2.9,1.9 -7,23.1 -15.7,28.4c-3.5,2.1 -30.6,7.4 -38.7,-1.1c-15.1,-15.8 -10.5,-29.9 -15.4,-31.9c-3.3,-1.4 -4,-3.2 -4,-4.4c0.3,-1.3 1.4,-0.3 2.6,0.5" fill="#333"/>
   </g>
  </g>
  <g id="svg_147">
   <defs transform="translate(0,-1) translate(0,-1) translate(0,-1) translate(0,-1) translate(0,-1) translate(0,-1) translate(0,-1) translate(0,-1) translate(0,-1) translate(0,-1) translate(0,-1) translate(0,-1) translate(0,-1) translate(0,-1) translate(0,-1) translate(0,-1) translate(0,-1) translate(0,-1) translate(0,-1) translate(0,-1) translate(0,-1) translate(0,-1) translate(0,-1) translate(0,-1) translate(0,-1) translate(0,-1) ">
    <path d="m51.6,77.2l20.2,0l0,3l-20.2,0l0,-3z" id="ag"/>
   </defs>
   <clipPath transform="translate(0,-1) translate(0,-1) translate(0,-1) translate(0,-1) translate(0,-1) translate(0,-1) translate(0,-1) translate(0,-1) translate(0,-1) translate(0,-1) translate(0,-1) translate(0,-1) translate(0,-1) translate(0,-1) translate(0,-1) translate(0,-1) translate(0,-1) translate(0,-1) translate(0,-1) translate(0,-1) translate(0,-1) translate(0,-1) translate(0,-1) translate(0,-1) translate(0,-1) translate(0,-1) " id="ah">
    <use x="0" y="-26" id="svg_148" xlink:href="#ag"/>
   </clipPath>
   <g id="svg_149" clip-path="url(#ah)" opacity="0.3">
    <path id="svg_150" d="m51.75,51.45c-1.6,-0.6 6.8,2.9 9.9,2.7c3.1,-0.2 8.3,-2.4 10,-2.9c1.5,-0.5 -7.8,1.2 -10.1,1.1s-8.9,-0.6 -9.8,-0.9" fill="#333"/>
   </g>
  </g>
  <g id="svg_151">
   <defs transform="translate(0,-1) translate(0,-1) translate(0,-1) translate(0,-1) translate(0,-1) translate(0,-1) translate(0,-1) translate(0,-1) translate(0,-1) translate(0,-1) translate(0,-1) translate(0,-1) translate(0,-1) translate(0,-1) translate(0,-1) translate(0,-1) translate(0,-1) translate(0,-1) translate(0,-1) translate(0,-1) translate(0,-1) translate(0,-1) translate(0,-1) translate(0,-1) translate(0,-1) translate(0,-1) ">
    <path d="m116.6,82.1l21.7,0l0,5.3l-21.7,0l0,-5.3z" id="ai"/>
   </defs>
   <clipPath transform="translate(0,-1) translate(0,-1) translate(0,-1) translate(0,-1) translate(0,-1) translate(0,-1) translate(0,-1) translate(0,-1) translate(0,-1) translate(0,-1) translate(0,-1) translate(0,-1) translate(0,-1) translate(0,-1) translate(0,-1) translate(0,-1) translate(0,-1) translate(0,-1) translate(0,-1) translate(0,-1) translate(0,-1) translate(0,-1) translate(0,-1) translate(0,-1) translate(0,-1) translate(0,-1) " id="aj">
    <use x="0" y="-26" id="svg_152" xlink:href="#ai"/>
   </clipPath>
   <g id="svg_153" clip-path="url(#aj)" opacity="0.3">
    <path id="svg_154" d="m116.6,56.15c2.9,1.3 4.2,4.6 7,4.9s6.2,0.8 7.8,-0.1c1.6,-0.9 5.6,-3 6.7,-3.2c1.2,-0.2 -8.7,1.3 -12.4,1c-3.7,-0.4 -8,-2.5 -9.1,-2.6" fill="#333"/>
   </g>
  </g>
  <g id="svg_155">
   <defs transform="translate(0,-1) translate(0,-1) translate(0,-1) translate(0,-1) translate(0,-1) translate(0,-1) translate(0,-1) translate(0,-1) translate(0,-1) translate(0,-1) translate(0,-1) translate(0,-1) translate(0,-1) translate(0,-1) translate(0,-1) translate(0,-1) translate(0,-1) translate(0,-1) translate(0,-1) translate(0,-1) translate(0,-1) translate(0,-1) translate(0,-1) translate(0,-1) translate(0,-1) translate(0,-1) ">
    <path d="m187.4,86l12.3,0l0,3.9l-12.3,0l0,-3.9z" id="ak"/>
   </defs>
   <clipPath transform="translate(0,-1) translate(0,-1) translate(0,-1) translate(0,-1) translate(0,-1) translate(0,-1) translate(0,-1) translate(0,-1) translate(0,-1) translate(0,-1) translate(0,-1) translate(0,-1) translate(0,-1) translate(0,-1) translate(0,-1) translate(0,-1) translate(0,-1) translate(0,-1) translate(0,-1) translate(0,-1) translate(0,-1) translate(0,-1) translate(0,-1) translate(0,-1) translate(0,-1) translate(0,-1) " id="al">
    <use x="0" y="-26" id="svg_156" xlink:href="#ak"/>
   </clipPath>
   <g id="svg_157" clip-path="url(#al)" opacity="0.3">
    <path id="svg_158" d="m187.575,59.975c-1.2,-0.5 4.4,4 6.1,3.8c1.7,-0.2 4.7,-2.1 6,-2.6c1,-0.4 -4,1 -5.5,0.7c-1.5,-0.1 -5.4,-1.4 -6.6,-1.9" fill="#333"/>
   </g>
  </g>
  <g id="svg_159">
   <defs transform="translate(0,-1) translate(0,-1) translate(0,-1) translate(0,-1) translate(0,-1) translate(0,-1) translate(0,-1) translate(0,-1) translate(0,-1) translate(0,-1) translate(0,-1) translate(0,-1) translate(0,-1) translate(0,-1) translate(0,-1) translate(0,-1) translate(0,-1) translate(0,-1) translate(0,-1) translate(0,-1) translate(0,-1) translate(0,-1) translate(0,-1) translate(0,-1) translate(0,-1) translate(0,-1) ">
    <path d="m62.3,82.8l28.9,0l0,28.6l-28.9,0l0,-28.6z" id="am"/>
   </defs>
   <clipPath transform="translate(0,-1) translate(0,-1) translate(0,-1) translate(0,-1) translate(0,-1) translate(0,-1) translate(0,-1) translate(0,-1) translate(0,-1) translate(0,-1) translate(0,-1) translate(0,-1) translate(0,-1) translate(0,-1) translate(0,-1) translate(0,-1) translate(0,-1) translate(0,-1) translate(0,-1) translate(0,-1) translate(0,-1) translate(0,-1) translate(0,-1) translate(0,-1) translate(0,-1) translate(0,-1) " id="an">
    <use x="0" y="-26" id="svg_160" xlink:href="#am"/>
   </clipPath>
   <g id="svg_161" clip-path="url(#an)" opacity="0.3">
    <path id="svg_162" d="m63.05,61.825c7.4,-7.3 25,-4.8 28.2,-4.2c-21.1,1.5 -21.5,3.1 -25.2,6.8c-0.5,2.9 -1.2,12.5 2.1,20.9c-3.7,-2 -7.6,-21 -5.1,-23.5" fill="#333"/>
   </g>
  </g>
  <g id="svg_163">
   <defs transform="translate(0,-1) translate(0,-1) translate(0,-1) translate(0,-1) translate(0,-1) translate(0,-1) translate(0,-1) translate(0,-1) translate(0,-1) translate(0,-1) translate(0,-1) translate(0,-1) translate(0,-1) translate(0,-1) translate(0,-1) translate(0,-1) translate(0,-1) translate(0,-1) translate(0,-1) translate(0,-1) translate(0,-1) translate(0,-1) translate(0,-1) translate(0,-1) translate(0,-1) translate(0,-1) ">
    <path d="m165.1,87.8l27.8,0l0,30.5l-27.8,0l0,-30.5z" id="ao"/>
   </defs>
   <clipPath transform="translate(0,-1) translate(0,-1) translate(0,-1) translate(0,-1) translate(0,-1) translate(0,-1) translate(0,-1) translate(0,-1) translate(0,-1) translate(0,-1) translate(0,-1) translate(0,-1) translate(0,-1) translate(0,-1) translate(0,-1) translate(0,-1) translate(0,-1) translate(0,-1) translate(0,-1) translate(0,-1) translate(0,-1) translate(0,-1) translate(0,-1) translate(0,-1) translate(0,-1) translate(0,-1) " id="ap">
    <use x="0" y="-26" id="svg_164" xlink:href="#ao"/>
   </clipPath>
   <g id="svg_165" clip-path="url(#ap)" opacity="0.3">
    <path id="svg_166" d="m192.46,69.698c-6.4,-8.2 -24.1,-8.1 -27.4,-7.8c20.7,4.3 20.9,5.9 24.1,10.1c0.2,2.9 -0.4,12.5 -4.7,20.4c3.8,-1.6 10.1,-20 8,-22.7" fill="#333"/>
   </g>
  </g>
  <g id="svg_167">
   <defs transform="translate(0,-1) translate(0,-1) translate(0,-1) translate(0,-1) translate(0,-1) translate(0,-1) translate(0,-1) translate(0,-1) translate(0,-1) translate(0,-1) translate(0,-1) translate(0,-1) translate(0,-1) translate(0,-1) translate(0,-1) translate(0,-1) translate(0,-1) translate(0,-1) translate(0,-1) translate(0,-1) translate(0,-1) translate(0,-1) translate(0,-1) translate(0,-1) translate(0,-1) translate(0,-1) ">
    <path d="m65.8,84.8l47.8,0l0,27.5l-47.8,0l0,-27.5z" id="aq"/>
   </defs>
   <clipPath transform="translate(0,-1) translate(0,-1) translate(0,-1) translate(0,-1) translate(0,-1) translate(0,-1) translate(0,-1) translate(0,-1) translate(0,-1) translate(0,-1) translate(0,-1) translate(0,-1) translate(0,-1) translate(0,-1) translate(0,-1) translate(0,-1) translate(0,-1) translate(0,-1) translate(0,-1) translate(0,-1) translate(0,-1) translate(0,-1) translate(0,-1) translate(0,-1) translate(0,-1) translate(0,-1) " id="ar">
    <use x="0" y="-26" id="svg_168" xlink:href="#aq"/>
   </clipPath>
   <g id="svg_169" clip-path="url(#ar)">
    <path id="svg_170" d="m66.412,76.575c0.7,-8.6 1.5,-15.6 18.6,-16.1c13.7,-0.4 24.6,2.8 26.1,6.1c1,2.1 0.2,11.3 -6.6,19.7c4.4,-3.9 11.4,-19.4 8.4,-21.3c-11.1,-7.1 -33.2,-7.3 -41.4,-4.4c-1.5,0.5 -3.9,2.2 -5.5,4c-0.3,2.2 -0.3,10.8 0.4,12" fill="#D0DDDC"/>
   </g>
  </g>
  <g id="svg_171">
   <defs transform="translate(0,-1) translate(0,-1) translate(0,-1) translate(0,-1) translate(0,-1) translate(0,-1) translate(0,-1) translate(0,-1) translate(0,-1) translate(0,-1) translate(0,-1) translate(0,-1) translate(0,-1) translate(0,-1) translate(0,-1) translate(0,-1) translate(0,-1) translate(0,-1) translate(0,-1) translate(0,-1) translate(0,-1) translate(0,-1) translate(0,-1) translate(0,-1) translate(0,-1) translate(0,-1) ">
    <path d="m66.8,103l35.2,0l0,13.9l-35.2,0l0,-13.9z" id="as"/>
   </defs>
   <clipPath transform="translate(0,-1) translate(0,-1) translate(0,-1) translate(0,-1) translate(0,-1) translate(0,-1) translate(0,-1) translate(0,-1) translate(0,-1) translate(0,-1) translate(0,-1) translate(0,-1) translate(0,-1) translate(0,-1) translate(0,-1) translate(0,-1) translate(0,-1) translate(0,-1) translate(0,-1) translate(0,-1) translate(0,-1) translate(0,-1) translate(0,-1) translate(0,-1) translate(0,-1) translate(0,-1) " id="at">
    <use x="0" y="-26" id="svg_172" xlink:href="#as"/>
   </clipPath>
   <g id="svg_173" clip-path="url(#at)">
    <path id="svg_174" d="m66.884,77.2c2.6,16.8 33.3,11.7 35.1,11c-0.1,0.9 -16.1,5.4 -29.5,0.2c-5.4,-2 -5.8,-13.1 -5.6,-11.2" fill="#D0DDDC"/>
   </g>
  </g>
  <g id="svg_175">
   <defs transform="translate(0,-1) translate(0,-1) translate(0,-1) translate(0,-1) translate(0,-1) translate(0,-1) translate(0,-1) translate(0,-1) translate(0,-1) translate(0,-1) translate(0,-1) translate(0,-1) translate(0,-1) translate(0,-1) translate(0,-1) translate(0,-1) translate(0,-1) translate(0,-1) translate(0,-1) translate(0,-1) translate(0,-1) translate(0,-1) translate(0,-1) translate(0,-1) translate(0,-1) translate(0,-1) ">
    <path d="m141.2,89.5l47.7,0l0,25.5l-47.7,0l0,-25.5z" id="au"/>
   </defs>
   <clipPath transform="translate(0,-1) translate(0,-1) translate(0,-1) translate(0,-1) translate(0,-1) translate(0,-1) translate(0,-1) translate(0,-1) translate(0,-1) translate(0,-1) translate(0,-1) translate(0,-1) translate(0,-1) translate(0,-1) translate(0,-1) translate(0,-1) translate(0,-1) translate(0,-1) translate(0,-1) translate(0,-1) translate(0,-1) translate(0,-1) translate(0,-1) translate(0,-1) translate(0,-1) translate(0,-1) " id="av">
    <use x="0" y="-26" id="svg_176" xlink:href="#au"/>
   </clipPath>
   <g id="svg_177" clip-path="url(#av)">
    <path id="svg_178" d="m186.957,84.087c0.4,-8.7 0.4,-15.6 -16.4,-18.2c-13.5,-2.1 -24.7,-0.3 -26.7,2.8c-1.2,1.9 -1.6,11.2 4.2,20.4c-3.9,-4.5 -9,-20.6 -5.7,-22.2c11.9,-5.7 33.9,-3.2 41.6,0.7c1.4,0.7 3.7,2.6 5,4.7c-0.1,2.1 -1.1,10.7 -2,11.8" fill="#D0DDDC"/>
   </g>
  </g>
  <g id="svg_179">
   <defs transform="translate(0,-1) translate(0,-1) translate(0,-1) translate(0,-1) translate(0,-1) translate(0,-1) translate(0,-1) translate(0,-1) translate(0,-1) translate(0,-1) translate(0,-1) translate(0,-1) translate(0,-1) translate(0,-1) translate(0,-1) translate(0,-1) translate(0,-1) translate(0,-1) translate(0,-1) translate(0,-1) translate(0,-1) translate(0,-1) translate(0,-1) translate(0,-1) translate(0,-1) translate(0,-1) ">
    <path d="m150.2,110.4l36.3,0l0,11.7l-36.3,0l0,-11.7z" id="aw"/>
   </defs>
   <clipPath transform="translate(0,-1) translate(0,-1) translate(0,-1) translate(0,-1) translate(0,-1) translate(0,-1) translate(0,-1) translate(0,-1) translate(0,-1) translate(0,-1) translate(0,-1) translate(0,-1) translate(0,-1) translate(0,-1) translate(0,-1) translate(0,-1) translate(0,-1) translate(0,-1) translate(0,-1) translate(0,-1) translate(0,-1) translate(0,-1) translate(0,-1) translate(0,-1) translate(0,-1) translate(0,-1) " id="ax">
    <use x="0" y="-26" id="svg_180" xlink:href="#aw"/>
   </clipPath>
   <g id="svg_181" clip-path="url(#ax)">
    <path id="svg_182" d="m186.383,84.613c-4.6,16.3 -34.5,7.5 -36.2,6.6c0,0.9 15.3,7.3 29.3,3.9c5.6,-1.4 7.5,-12.4 6.9,-10.5" fill="#D0DDDC"/>
   </g>
  </g>
  <g id="svg_183">
   <defs transform="translate(0,-1) translate(0,-1) translate(0,-1) translate(0,-1) translate(0,-1) translate(0,-1) translate(0,-1) translate(0,-1) translate(0,-1) translate(0,-1) translate(0,-1) translate(0,-1) translate(0,-1) translate(0,-1) translate(0,-1) translate(0,-1) translate(0,-1) translate(0,-1) translate(0,-1) translate(0,-1) translate(0,-1) translate(0,-1) translate(0,-1) translate(0,-1) translate(0,-1) translate(0,-1) ">
    <path d="m87.3,95.2l2,0l0,2l-2,0l0,-2z" id="ay"/>
   </defs>
   <clipPath transform="translate(0,-1) translate(0,-1) translate(0,-1) translate(0,-1) translate(0,-1) translate(0,-1) translate(0,-1) translate(0,-1) translate(0,-1) translate(0,-1) translate(0,-1) translate(0,-1) translate(0,-1) translate(0,-1) translate(0,-1) translate(0,-1) translate(0,-1) translate(0,-1) translate(0,-1) translate(0,-1) translate(0,-1) translate(0,-1) translate(0,-1) translate(0,-1) translate(0,-1) translate(0,-1) " id="az">
    <use x="0" y="-26" id="svg_184" xlink:href="#ay"/>
   </clipPath>
   <g id="svg_185" clip-path="url(#az)" opacity="0.25">
    <path id="svg_186" d="m89.375,70.2c0,-0.5 -0.4,-1 -1,-1s-1,0.4 -1,1s0.4,1 1,1s1,-0.4 1,-1" fill="#FFF"/>
   </g>
  </g>
  <g id="svg_187">
   <defs transform="translate(0,-1) translate(0,-1) translate(0,-1) translate(0,-1) translate(0,-1) translate(0,-1) translate(0,-1) translate(0,-1) translate(0,-1) translate(0,-1) translate(0,-1) translate(0,-1) translate(0,-1) translate(0,-1) translate(0,-1) translate(0,-1) translate(0,-1) translate(0,-1) translate(0,-1) translate(0,-1) translate(0,-1) translate(0,-1) translate(0,-1) translate(0,-1) translate(0,-1) translate(0,-1) ">
    <path d="m166.3,99.9l2,0l0,2l-2,0l0,-2z" id="aA"/>
   </defs>
   <clipPath transform="translate(0,-1) translate(0,-1) translate(0,-1) translate(0,-1) translate(0,-1) translate(0,-1) translate(0,-1) translate(0,-1) translate(0,-1) translate(0,-1) translate(0,-1) translate(0,-1) translate(0,-1) translate(0,-1) translate(0,-1) translate(0,-1) translate(0,-1) translate(0,-1) translate(0,-1) translate(0,-1) translate(0,-1) translate(0,-1) translate(0,-1) translate(0,-1) translate(0,-1) translate(0,-1) " id="aB">
    <use x="0" y="-26" id="svg_188" xlink:href="#aA"/>
   </clipPath>
   <g id="svg_189" clip-path="url(#aB)" opacity="0.25">
    <path id="svg_190" d="m168.375,74.9c0,-0.5 -0.4,-1 -1,-1c-0.5,0 -1,0.4 -1,1s0.4,1 1,1c0.5,0 1,-0.5 1,-1" fill="#FFF"/>
   </g>
  </g>
  <g id="svg_191">
   <defs transform="translate(0,-1) translate(0,-1) translate(0,-1) translate(0,-1) translate(0,-1) translate(0,-1) translate(0,-1) translate(0,-1) translate(0,-1) translate(0,-1) translate(0,-1) translate(0,-1) translate(0,-1) translate(0,-1) translate(0,-1) translate(0,-1) translate(0,-1) translate(0,-1) translate(0,-1) translate(0,-1) translate(0,-1) translate(0,-1) translate(0,-1) translate(0,-1) translate(0,-1) translate(0,-1) ">
    <path d="m52,79.1l64.8,0l0,9.5l-64.8,0l0,-9.5z" id="aC"/>
   </defs>
   <clipPath transform="translate(0,-1) translate(0,-1) translate(0,-1) translate(0,-1) translate(0,-1) translate(0,-1) translate(0,-1) translate(0,-1) translate(0,-1) translate(0,-1) translate(0,-1) translate(0,-1) translate(0,-1) translate(0,-1) translate(0,-1) translate(0,-1) translate(0,-1) translate(0,-1) translate(0,-1) translate(0,-1) translate(0,-1) translate(0,-1) translate(0,-1) translate(0,-1) translate(0,-1) translate(0,-1) " id="aD">
    <use x="0" y="-26" id="svg_192" xlink:href="#aC"/>
   </clipPath>
   <g id="svg_193" clip-path="url(#aD)" opacity="0.1">
    <path id="svg_194" d="m52.025,55.675c2.4,2.7 3.9,3 7.1,2.6c31.1,-4 48.3,-3.9 56.8,4c1.8,1.7 0.8,-5.1 -2.6,-6c-26.2,-6.9 -45.2,-0.7 -49.2,-0.2c-4.1,0.6 -7,-0.3 -12.1,-0.4" fill="#D0DDDC"/>
   </g>
  </g>
  <g id="svg_195">
   <defs transform="translate(0,-1) translate(0,-1) translate(0,-1) translate(0,-1) translate(0,-1) translate(0,-1) translate(0,-1) translate(0,-1) translate(0,-1) translate(0,-1) translate(0,-1) translate(0,-1) translate(0,-1) translate(0,-1) translate(0,-1) translate(0,-1) translate(0,-1) translate(0,-1) translate(0,-1) translate(0,-1) translate(0,-1) translate(0,-1) translate(0,-1) translate(0,-1) translate(0,-1) translate(0,-1) ">
    <path d="m137.7,82.3l47.9,0l0,9.2l-47.9,0l0,-9.2z" id="aE"/>
   </defs>
   <clipPath transform="translate(0,-1) translate(0,-1) translate(0,-1) translate(0,-1) translate(0,-1) translate(0,-1) translate(0,-1) translate(0,-1) translate(0,-1) translate(0,-1) translate(0,-1) translate(0,-1) translate(0,-1) translate(0,-1) translate(0,-1) translate(0,-1) translate(0,-1) translate(0,-1) translate(0,-1) translate(0,-1) translate(0,-1) translate(0,-1) translate(0,-1) translate(0,-1) translate(0,-1) translate(0,-1) " id="aF">
    <use x="0" y="-26" id="svg_196" xlink:href="#aE"/>
   </clipPath>
   <g id="svg_197" clip-path="url(#aF)" opacity="0.1">
    <path id="svg_198" d="m138.025,59.675c-0.7,0.7 -0.4,7.9 3,5.2c9.8,-7.8 30.3,-6 44.6,-1.2c-2.3,-4.5 -19,-7.6 -28.4,-7.5c-4.5,0.2 -17.3,1.5 -19.2,3.5" fill="#D0DDDC"/>
   </g>
  </g>
  <path id="svg_199" d="m197.2,65.4c0,0.3 -1.6,0.5 -3.5,0.5s-3.5,-0.2 -3.5,-0.5s1.6,-0.5 3.5,-0.5c2,0 3.5,0.3 3.5,0.5m-134.8,-8.6c0,0.3 -1.6,0.3 -3.5,0s-3.4,-0.8 -3.3,-1.1s1.6,-0.3 3.5,0c1.9,0.2 3.4,0.7 3.3,1.1" fill="#D0DDDC"/>
  <g id="svg_200">
   <path id="svg_201" d="m256.04,217.036c-0.6,-6.1 -5.1,-8.8 -9.2,-8.8c-1.9,0 -3.4,0.5 -4,0.8l-0.8,0.4l-0.7,0.5c-1,0.7 -2.7,1.8 -4.2,2.3c-0.1,-1.2 0,-2.8 0.2,-4.2l0,-0.2c1.1,-10.7 -1.1,-17 -6.7,-18.6c-0.9,-0.3 -1.9,-0.4 -2.9,-0.4c-3.4,0 -6.4,1.6 -8.3,3c-1.6,-2.1 -4.4,-3.2 -7.8,-3.2c-5.1,0 -9.2,2.4 -10.7,6.2c-0.2,0.4 -0.4,1 -0.6,1.8c-3,-6.6 -9.1,-9.1 -14.8,-9.1c-5.4,0 -10.6,2.1 -12.5,3.6c-0.1,0.1 -0.2,0.1 -0.3,0.2c-5.1,3.6 -9.1,8.2 -11.9,13.7c-1.4,-4.7 -4.4,-9.2 -9.7,-12.5l-0.1,-0.1c-0.2,-0.1 -0.3,-0.2 -0.4,-0.2c5.3,-9.3 9.9,-21.7 7.1,-33.5c-3,-12.6 -10.4,-14.4 -14.5,-14.4c-1.7,0 -3.5,0.3 -5.3,0.9l-0.2,0c-7.8,3.1 -11.2,7.7 -12,8.8c-0.8,1.2 -9.3,14.2 -11.4,33.2c-0.2,2.1 -0.5,4.3 -0.7,6.5c-1.2,-1.7 -3.2,-3.3 -6.3,-4.2c-1,-0.3 -2,-0.4 -3,-0.4c-4.3,0 -7.8,2.6 -9.7,4.4c-1.6,-2.4 -4.2,-3.9 -7.1,-4l-0.7,0c-4.6,0 -8.2,2 -10.9,4.3c-1.7,-3 -4.9,-4.9 -8.6,-4.9l-1.5,0c-5.1,0 -9.1,2.4 -10.7,6.4c-0.1,0.3 -0.3,0.7 -0.4,1.2c-4,-5 -9.1,-7.3 -16,-7.3l-0.7,0c-4.3,0.1 -14.9,1.9 -21.5,16.6c-1,2.3 -1.8,4.6 -2.4,6.8c-1.4,-0.7 -2.8,-0.8 -3.7,-0.8c-3.4,0 -6,1.9 -7.2,3.8c-1,1.5 -4.2,6.7 -2.6,11.9c0.9,2.8 2.8,4.9 5.6,6c2.5,1 5.6,1.9 7.9,2.6c1.4,3.3 4,7 8.6,10.5c3.2,2.5 7.4,3.7 12.2,3.7c8.2,0 16.1,-3.5 16.9,-3.9l0.3,-0.2l0.1,-0.1c1.6,1.6 3.6,2.8 6.2,3.3c0.8,0.2 1.8,0.3 3,0.3c4.4,0 7.5,-2.3 10.4,-6.5c2.3,3.7 6.6,5.7 11.6,5.7c0.3,0 0.5,0.2 0.9,0.2c2.6,0 6,-0.9 8.7,-5.4c2.3,4.1 6.5,6.5 11.5,6.5c4.4,0 8.3,-1.8 9,-2.2l0.2,-0.1c1.5,-0.8 2.7,-1.5 3.7,-2c3.3,1.8 8.3,3.7 14.5,3.7c1.1,0 2.1,0 3.2,-0.2l0.6,0c13,-2.6 21.5,-5.7 26.6,-8.1c3.5,4 9.2,7.8 17.2,8.4c0.9,0.1 1.8,0.1 2.7,0.1c6.6,0 11.9,-1.9 15.8,-3.9c1.2,1.3 2.8,2.5 4.8,3.3c1.2,0.5 2.5,0.7 3.7,0.7c8.1,0 11.9,-9.6 12.9,-12.9l1.9,-5.2c1.7,1.8 3.9,3.3 6.7,4.1c1.5,0.4 3.2,0.7 4.8,0.7c8.9,0 17.5,-6.3 18.8,-7.4c2.3,-2.3 4.9,-6.5 4.4,-12.2" fill="#FFF"/>
  </g>
  <path id="svg_203" d="m174.35,219.713s-1.1,-4 3.1,-11.6s7.4,-3.5 7.4,-3.5s3.6,3.9 -0.5,9.7c-4.1,5.8 -10,5.4 -10,5.4m-32.1,5.5c-4.8,12.5 -16.4,7.4 -16.4,7.4s-1.3,-4.5 2.5,-17s12.6,-7.6 12.6,-7.6s6.1,4.7 1.3,17.2m-8.7,-52.5s7.2,-18.9 9,-9.7c1.8,9.2 -15.2,36.5 -15.2,36.5c0.2,-6.1 6.2,-26.8 6.2,-26.8m-103.5,47c0.3,-12.1 8.2,-17.4 11,-14.8c2.8,2.6 1.8,8.4 -3.5,11.9c-5.1,3.6 -7.5,2.9 -7.5,2.9m219.3,-2c-0.4,-4.1 -4.1,-2.6 -4.1,-2.6s-5.9,4.6 -11.1,4.1c-5.2,-0.5 -3.5,-12.1 -3.5,-12.1s1.1,-10.7 -1.9,-11.6c-3.1,-0.9 -6.8,2.8 -6.8,2.8s-4.7,5.2 -6.9,11.8l-0.6,0.2s0.7,-11.6 -0.1,-14.3c-0.6,-1.3 -6.2,-1.2 -7.1,1.1c-0.9,2.3 -5.4,18.6 -5.7,25.5c0,0 -8.8,7.4 -16.4,8.7c-7.7,1.2 -9.5,-3.6 -9.5,-3.6s20.8,-5.8 20.1,-22.4c-0.7,-16.6 -16.8,-10.5 -18.6,-9.1c-1.8,1.3 -11.1,7 -13.9,22.6c-0.1,0.5 -0.3,2.9 -0.3,2.9s-8.1,5.4 -12.5,6.8c0,0 12.5,-21.1 -2.8,-30.7c-6.9,-4.2 -12.5,4.6 -12.5,4.6s20.7,-23 16.1,-42.5c-2.2,-9.3 -6.8,-10.3 -11.1,-8.8c-6.5,2.6 -8.9,6.3 -8.9,6.3s-8.4,12.1 -10.3,30.2s-4.8,39.8 -4.8,39.8s-4,3.9 -7.6,4.1c-3.7,0.2 -2,-10.9 -2,-10.9s2.8,-16.9 2.6,-19.8s-0.4,-4.4 -3.8,-5.4c-3.3,-1 -7,3.3 -7,3.3s-9.7,14.7 -10.5,16.9l-0.5,0.9l-0.5,-0.6s6.8,-20 0.3,-20.3c-6.5,-0.3 -10.8,7.1 -10.8,7.1s-7.4,12.5 -7.7,13.9l-0.5,-0.6s3.1,-14.5 2.5,-18.1c-0.6,-3.6 -4,-2.8 -4,-2.8s-4.3,-0.5 -5.4,2.3c-1.1,2.8 -5.2,21 -5.7,26.8c0,0 -10.7,7.7 -17.7,7.7c-7,0.1 -6.3,-4.5 -6.3,-4.5s25.8,-8.8 18.8,-26.3c-3.2,-4.5 -6.8,-5.9 -12,-5.8c-5.2,0.1 -11.3,3.3 -15.5,12.6c-2,4.5 -2.8,8.7 -2.8,11.9c0,0 -4.8,0.9 -7.3,-1.1s-3.9,0 -3.9,0s-4.3,6.1 -0.1,7.7c4.2,1.6 10.6,3.2 10.6,3.2c0.6,2.6 2.3,7 7.4,10.8c7.6,5.8 22.3,-0.9 22.3,-0.9l6,-3.6s0.2,5.4 4.6,6.2c4.4,0.8 6.2,-0.1 13.9,-18.6c4.5,-9.5 4.8,-9 4.8,-9l0.5,-0.1s-3.5,18.1 -2.1,23s7.1,4.4 7.1,4.4s3.2,1.1 5.7,-7.9c2.6,-9 7.4,-18.4 7.4,-18.4l0.6,0s-2.1,18.1 1.1,24c3.3,5.9 11.7,1.8 11.7,1.8s5.9,-3.1 6.8,-4c0,0 7,5.9 16.9,4.8c22.1,-4.4 30,-10.3 30,-10.3s3.8,9.6 15.6,10.5c13.5,1 20.8,-7.5 20.8,-7.5s-0.1,5.5 4.6,7.4c4.7,1.9 7.9,-8.3 7.9,-8.3l7.9,-21.1l0.7,0s0.4,13.5 8.2,15.7c7.8,2.2 17.9,-5.6 17.9,-5.6s2.2,-1.1 1.7,-5.2" fill="#E24B31"/>
 </g>
</svg>