<svg width="256" height="256" xmlns="http://www.w3.org/2000/svg" preserveAspectRatio="xMidYMid">

 <g>
  <title>background</title>
  <rect fill="none" id="canvas_background" height="258" width="258" y="-1" x="-1"/>
 </g>
 <g>
  <title>Layer 1</title>
  <path stroke="null" id="svg_1" fill-rule="evenodd" fill="#E535AB" d="m148.908267,30.18132l51.521725,30.232135a22.490776,22.856911 0 0 1 5.068025,-4.075805c10.684839,-6.242958 24.313975,-2.536312 30.52052,8.323354c6.142955,10.859666 2.495684,24.709791 -8.190026,31.017374a22.385373,22.749793 0 0 1 -5.950443,2.407948l0,60.486403a22.387116,22.751563 0 0 1 5.886853,2.392013c10.7493,6.307583 14.39657,20.158593 8.190026,31.018259c-6.142955,10.858781 -19.835681,14.565427 -30.521391,8.323354a22.181537,22.542638 0 0 1 -5.522736,-4.55651l-51.208131,30.046228a22.361854,22.72589 0 0 1 1.128067,7.153021c0,12.485031 -9.980995,22.694905 -22.330494,22.694905c-12.349499,0 -22.330494,-10.14525 -22.330494,-22.694905c0,-2.230893 0.315336,-4.385651 0.903324,-6.420898l-51.507788,-30.223283a22.495131,22.861337 0 0 1 -4.998337,4.001442c-10.7493,6.242073 -24.378436,2.535427 -30.521391,-8.323354c-6.142084,-10.859666 -2.494813,-24.710676 8.190026,-31.018259a22.395826,22.760416 0 0 1 5.886853,-2.392898l0,-60.485517a22.385373,22.749793 0 0 1 -5.950443,-2.407948c-10.68571,-6.242073 -14.33298,-20.157708 -8.190026,-31.017374c6.142955,-10.859666 19.83481,-14.566312 30.52052,-8.323354a22.491647,22.857796 0 0 1 5.043634,4.050132l51.536534,-30.240103a22.393213,22.75776 0 0 1 -0.912906,-6.453653c0,-12.548771 9.980995,-22.69402 22.330494,-22.69402c12.349499,0 22.330494,10.144364 22.330494,22.69402c0,2.25568 -0.322305,4.432571 -0.922489,6.487294zm-5.367681,9.314862l51.644549,30.302957a22.299135,22.66215 0 0 0 2.122856,17.555885c3.143778,5.557755 8.26494,9.242269 13.948828,10.678185l0,60.561651c-0.290074,0.071707 -0.578406,0.150497 -0.864996,0.233713l-67.451421,-118.725978c0.203836,-0.198302 0.404188,-0.400144 0.600184,-0.605528l0,-0.000885zm-31.466528,0.619692l-67.45055,118.724207a22.495131,22.861337 0 0 0 -0.879805,-0.239024l0,-60.567848c5.683888,-1.435916 10.80505,-5.12043 13.948828,-10.678185a22.300006,22.663036 0 0 0 2.114145,-17.589526l51.629741,-30.294105c0.208191,0.218663 0.420738,0.433785 0.637641,0.643595l0,0.000885zm21.66585,5.378045l67.43487,118.697649a22.205928,22.567426 0 0 0 -3.931247,5.096527a22.387116,22.751563 0 0 0 -2.353696,5.982687l-134.777404,0a22.395826,22.760416 0 0 0 -2.355438,-5.982687a22.496002,22.862222 0 0 0 -3.92515,-5.067313l67.447936,-118.721551a22.400182,22.764842 0 0 0 6.220482,0.888816c2.166411,0 4.25965,-0.311617 6.239646,-0.894128zm10.274554,172.166478l51.309178,-30.106426a22.530846,22.897633 0 0 1 -0.412027,-1.489032l-134.827928,0c-0.07143,0.294797 -0.148957,0.586937 -0.231711,0.878193l51.560053,30.254267a22.26342,22.625854 0 0 1 16.088235,-6.942325a22.268647,22.631166 0 0 1 16.5142,7.405324z"/>
 </g>
</svg>