<svg width="256" height="256" xmlns="http://www.w3.org/2000/svg" preserveAspectRatio="xMinYMin meet">

 <g>
  <title>background</title>
  <rect fill="none" id="canvas_background" height="258" width="258" y="-1" x="-1"/>
 </g>
 <g>
  <title>Layer 1</title>
  <g stroke="null" id="svg_6">
   <path stroke="null" id="svg_1" fill="#5382A1" d="m100.407546,196.9541s-8.431233,5.630591 6.000498,7.535821c17.484043,2.290385 26.41931,1.962453 45.686957,-2.225826c0,0 5.065894,3.647596 12.139621,6.807329c-43.1917,21.258323 -97.752597,-1.231761 -63.827075,-12.117325m-5.277985,-27.741389s-9.456549,8.03909 4.986041,9.754311c18.676732,2.21262 33.425959,2.393826 58.948357,-3.24997c0,0 3.530155,4.109781 9.080919,6.357616c-52.222152,17.536631 -110.387947,1.382888 -73.015317,-12.861957"/>
   <path stroke="null" id="svg_2" fill="#E76F00" d="m139.623829,122.15491c10.64285,14.070975 -2.796144,26.733385 -2.796144,26.733385s27.023001,-16.020223 14.612518,-36.082c-11.590869,-18.7075 -20.48014,-28.004028 27.640746,-60.053277c0,0 -75.533571,21.664019 -39.457121,69.401159"/>
   <path stroke="null" id="svg_3" fill="#5382A1" d="m196.748975,217.472927s6.239419,5.9035 -6.871857,10.471065c-24.930844,8.673678 -103.765871,11.292728 -125.666122,0.345539c-7.872259,-3.932243 6.891022,-9.390432 11.534652,-10.536358c4.842944,-1.206084 7.610979,-0.98086 7.610979,-0.98086c-8.755118,-7.083173 -56.58917,13.907376 -24.297128,19.917986c88.064153,16.400976 160.531996,-7.384694 137.689476,-19.217372m-92.287436,-77.003007s-40.09978,10.938386 -14.199836,14.909511c10.935433,1.681474 32.735388,1.301455 53.041767,-0.652928c16.595436,-1.606644 33.259226,-5.025348 33.259226,-5.025348s-5.851651,2.878021 -10.085154,6.197685c-40.721358,12.299265 -119.387735,6.577704 -96.740695,-6.003274c19.152658,-10.631729 34.725332,-9.425646 34.725332,-9.425646m71.935061,46.17598c41.395959,-24.702704 22.256077,-48.441422 8.896937,-45.242806c-3.274625,0.782047 -4.734343,1.459919 -4.734343,1.459919s1.215687,-2.18621 3.537182,-3.132589c26.428253,-10.670612 46.753797,31.470418 -8.531528,48.160443c0,0.000734 0.640743,-0.656597 0.831752,-1.244966"/>
   <path stroke="null" id="svg_4" fill="#E76F00" d="m151.440203,1.000735s22.925568,26.337226 -21.743739,66.834196c-35.819642,32.486492 -8.168036,51.009118 -0.014693,72.17207c-20.908792,-21.664019 -36.253406,-40.735399 -25.958716,-58.484782c15.108886,-26.056247 56.966717,-38.688578 47.717148,-80.522217"/>
   <path stroke="null" id="svg_5" fill="#5382A1" d="m108.529586,253.584272c39.734371,2.921305 100.750609,-1.620583 102.195635,-23.211973c0,0 -2.777618,8.185815 -32.838239,14.685755c-33.914023,7.328938 -75.741829,6.473529 -100.550657,1.776112c0.000639,0 5.078671,4.827269 31.193899,6.750106"/>
  </g>
 </g>
</svg>