<svg width="256" height="256" xmlns="http://www.w3.org/2000/svg" preserveAspectRatio="xMinYMin meet">

 <g>
  <title>background</title>
  <rect fill="none" id="canvas_background" height="258" width="258" y="-1" x="-1"/>
 </g>
 <g>
  <title>Layer 1</title>
  <g stroke="null" id="svg_1" fill="#8CC84B">
   <path stroke="null" id="svg_2" d="m117.131973,3.302616c6.278898,-3.615989 14.457158,-3.632322 20.730644,0c31.561337,17.942929 63.132595,35.857728 94.68852,53.811545c5.935281,3.363732 9.905363,10.00953 9.844937,16.890345l0,107.95157c0.044192,7.165738 -4.318208,13.970331 -10.57997,17.257842c-31.457621,17.844022 -62.899007,35.709822 -94.351217,53.553844c-6.408769,3.686766 -14.751171,3.40275 -20.959722,-0.58618c-9.430973,-5.500659 -18.87818,-10.974096 -28.310055,-16.469311c-1.92732,-1.156028 -4.099953,-2.076131 -5.460891,-3.956264c1.20311,-1.631505 3.354097,-1.834763 5.101943,-2.547072c3.936712,-1.259471 7.552354,-3.281159 11.168898,-5.242958c0.914508,-0.629736 2.031037,-0.388367 2.907665,0.175128c8.064623,4.65224 16.057997,9.439683 24.149676,14.04746c1.726201,1.002677 3.474047,-0.328479 4.949525,-1.156028c30.869594,-17.553654 61.777067,-35.041068 92.64125,-52.600166c1.143586,-0.553514 1.775804,-1.774875 1.682911,-3.035253c0.021645,-35.610915 0.005411,-71.228182 0.010823,-106.839097c0.130773,-1.430062 -0.691743,-2.744885 -1.976924,-3.330158c-31.348493,-17.762356 -62.680752,-35.551934 -94.023834,-53.318827a3.265712,3.285696 0 0 0 -3.692302,-0.005444c-31.343082,17.772337 -62.66993,35.578249 -94.013011,53.339697c-1.280671,0.58618 -2.140164,1.879226 -1.987746,3.314732c0.005411,35.610915 0,71.228182 0,106.844542a3.002363,3.020735 0 0 0 1.704556,2.997142c8.364047,4.772017 16.738917,9.51046 25.108376,14.266144c4.715036,2.553424 10.504212,4.070597 15.699048,2.114242c4.584263,-1.65419 7.797666,-6.360874 7.710183,-11.258112c0.04329,-35.403121 -0.021645,-70.811686 0.032468,-106.209362c-0.114539,-1.571617 1.367252,-2.870106 2.88602,-2.7222c4.018783,-0.027222 8.042978,-0.054444 12.061761,0.010889c1.677499,-0.038111 2.831907,1.65419 2.624475,3.237603c-0.016234,35.627248 0.04329,71.255404 -0.027056,106.882653c0.010823,9.495034 -3.866365,19.826691 -12.595675,24.472579c-10.754033,5.60501 -24.04596,4.416316 -34.670122,-0.958214c-9.197386,-4.618666 -17.974495,-10.069418 -27.00864,-15.017471c-6.277996,-3.269362 -10.618751,-10.101177 -10.574559,-17.261471l0,-107.952477c-0.065837,-7.023276 4.062073,-13.789759 10.18224,-17.104491c31.452209,-17.85854 62.899007,-35.730692 94.345806,-53.597399z"/>
   <path stroke="null" id="svg_3" d="m144.57081,78.081455c13.717615,-0.888345 28.402949,-0.526292 40.746998,6.272857c9.557236,5.210291 14.855789,16.145369 15.024441,26.82819c-0.266957,1.440951 -1.76408,2.235834 -3.131332,2.136927c-3.980002,-0.005444 -7.960906,0.054444 -11.940909,-0.027222c-1.688322,0.065333 -2.669569,-1.50084 -2.881511,-3.002587c-1.143586,-5.111385 -3.914165,-10.173769 -8.69594,-12.639175c-7.340412,-3.697655 -15.851466,-3.511638 -23.855663,-3.434509c-5.843289,0.312146 -12.126696,0.821197 -17.077123,4.278391c-3.800528,2.618757 -4.954936,7.905269 -3.598506,12.16279c1.278868,3.057031 4.786284,4.043375 7.656071,4.95259c16.531485,4.350076 34.049628,3.917246 50.265454,9.642033c6.713605,2.333833 13.281104,6.870833 15.579098,13.943109c3.00597,9.478701 1.688322,20.808498 -5.01446,28.417955c-5.435639,6.261968 -13.352353,9.670162 -21.248324,11.521259c-10.504212,2.356518 -21.405251,2.416406 -32.072704,1.370174c-10.030724,-1.150583 -20.469099,-3.802006 -28.212652,-10.678284c-6.621613,-5.784675 -9.855759,-14.79788 -9.534689,-23.497124c0.07666,-1.469081 1.530493,-2.493535 2.929311,-2.372851c4.007961,-0.032666 8.015921,-0.043555 12.023882,0.005444c1.600839,-0.11524 2.787715,1.276712 2.869786,2.794792c0.739543,4.870016 2.558637,9.981401 6.779442,12.868748c8.145792,5.28742 18.366813,4.925368 27.69407,5.073274c7.727319,-0.344812 16.401614,-0.449163 22.707568,-5.58777c3.32704,-2.930902 4.312797,-7.834492 3.413621,-12.052995c-0.974032,-3.561545 -4.677157,-5.22118 -7.85719,-6.30643c-16.319543,-5.193958 -34.033394,-3.309288 -50.195107,-9.182889c-6.561187,-2.332926 -12.905922,-6.743797 -15.42668,-13.525705c-3.517337,-9.598478 -1.905675,-21.4709 5.499672,-28.823563c7.220462,-7.313644 17.643504,-10.130214 27.553376,-11.138336l0,0.000907z"/>
  </g>
 </g>
</svg>