<svg width="256" height="256" xmlns="http://www.w3.org/2000/svg" preserveAspectRatio="xMinYMin meet">
 <defs>
  <linearGradient id="a" y2="64.584%" x2="58.254%" y1="111.399%" x1="84.75%">
   <stop offset="0%" stop-color="#FB7655"/>
   <stop offset="0%" stop-color="#FB7655"/>
   <stop offset="41%" stop-color="#E42B1E"/>
   <stop offset="99%" stop-color="#900"/>
   <stop offset="100%" stop-color="#900"/>
  </linearGradient>
  <linearGradient id="b" y2="19.288%" x2="1.746%" y1="60.89%" x1="116.651%">
   <stop offset="0%" stop-color="#871101"/>
   <stop offset="0%" stop-color="#871101"/>
   <stop offset="99%" stop-color="#911209"/>
   <stop offset="100%" stop-color="#911209"/>
  </linearGradient>
  <linearGradient id="c" y2="7.829%" x2="38.978%" y1="219.327%" x1="75.774%">
   <stop offset="0%" stop-color="#871101"/>
   <stop offset="0%" stop-color="#871101"/>
   <stop offset="99%" stop-color="#911209"/>
   <stop offset="100%" stop-color="#911209"/>
  </linearGradient>
  <linearGradient id="d" y2="79.135%" x2="66.483%" y1="7.234%" x1="50.012%">
   <stop offset="0%" stop-color="#FFF"/>
   <stop offset="0%" stop-color="#FFF"/>
   <stop offset="23%" stop-color="#E57252"/>
   <stop offset="46%" stop-color="#DE3B20"/>
   <stop offset="99%" stop-color="#A60003"/>
   <stop offset="100%" stop-color="#A60003"/>
  </linearGradient>
  <linearGradient id="e" y2="83.047%" x2="49.932%" y1="16.348%" x1="46.174%">
   <stop offset="0%" stop-color="#FFF"/>
   <stop offset="0%" stop-color="#FFF"/>
   <stop offset="23%" stop-color="#E4714E"/>
   <stop offset="56%" stop-color="#BE1A0D"/>
   <stop offset="99%" stop-color="#A80D00"/>
   <stop offset="100%" stop-color="#A80D00"/>
  </linearGradient>
  <linearGradient id="f" y2="92.478%" x2="49.528%" y1="15.594%" x1="36.965%">
   <stop offset="0%" stop-color="#FFF"/>
   <stop offset="0%" stop-color="#FFF"/>
   <stop offset="18%" stop-color="#E46342"/>
   <stop offset="40%" stop-color="#C82410"/>
   <stop offset="99%" stop-color="#A80D00"/>
   <stop offset="100%" stop-color="#A80D00"/>
  </linearGradient>
  <linearGradient id="g" y2="-46.717%" x2="85.764%" y1="58.346%" x1="13.609%">
   <stop offset="0%" stop-color="#FFF"/>
   <stop offset="0%" stop-color="#FFF"/>
   <stop offset="54%" stop-color="#C81F11"/>
   <stop offset="99%" stop-color="#BF0905"/>
   <stop offset="100%" stop-color="#BF0905"/>
  </linearGradient>
  <linearGradient id="h" y2="79.056%" x2="50.745%" y1="21.135%" x1="27.624%">
   <stop offset="0%" stop-color="#FFF"/>
   <stop offset="0%" stop-color="#FFF"/>
   <stop offset="31%" stop-color="#DE4024"/>
   <stop offset="99%" stop-color="#BF190B"/>
   <stop offset="100%" stop-color="#BF190B"/>
  </linearGradient>
  <linearGradient id="i" y2="-6.342%" x2="104.242%" y1="122.282%" x1="-20.667%">
   <stop offset="0%" stop-color="#BD0012"/>
   <stop offset="0%" stop-color="#BD0012"/>
   <stop offset="7%" stop-color="#FFF"/>
   <stop offset="17%" stop-color="#FFF"/>
   <stop offset="27%" stop-color="#C82F1C"/>
   <stop offset="33%" stop-color="#820C01"/>
   <stop offset="46%" stop-color="#A31601"/>
   <stop offset="72%" stop-color="#B31301"/>
   <stop offset="99%" stop-color="#E82609"/>
   <stop offset="100%" stop-color="#E82609"/>
  </linearGradient>
  <linearGradient id="j" y2="50.128%" x2="11.964%" y1="65.205%" x1="58.792%">
   <stop offset="0%" stop-color="#8C0C01"/>
   <stop offset="0%" stop-color="#8C0C01"/>
   <stop offset="54%" stop-color="#990C00"/>
   <stop offset="99%" stop-color="#A80D0E"/>
   <stop offset="100%" stop-color="#A80D0E"/>
  </linearGradient>
  <linearGradient id="k" y2="17.888%" x2="23.088%" y1="62.754%" x1="79.319%">
   <stop offset="0%" stop-color="#7E110B"/>
   <stop offset="0%" stop-color="#7E110B"/>
   <stop offset="99%" stop-color="#9E0C00"/>
   <stop offset="100%" stop-color="#9E0C00"/>
  </linearGradient>
  <linearGradient id="l" y2="39.704%" x2="59.841%" y1="74.122%" x1="92.88%">
   <stop offset="0%" stop-color="#79130D"/>
   <stop offset="0%" stop-color="#79130D"/>
   <stop offset="99%" stop-color="#9E120B"/>
   <stop offset="100%" stop-color="#9E120B"/>
  </linearGradient>
  <radialGradient id="m" r="69.573%" fy="40.21%" fx="32.001%" cy="40.21%" cx="32.001%">
   <stop offset="0%" stop-color="#A80D00"/>
   <stop offset="0%" stop-color="#A80D00"/>
   <stop offset="99%" stop-color="#7E0E08"/>
   <stop offset="100%" stop-color="#7E0E08"/>
  </radialGradient>
  <radialGradient id="n" r="88.386%" fy="40.86%" fx="13.549%" cy="40.86%" cx="13.549%">
   <stop offset="0%" stop-color="#A30C00"/>
   <stop offset="0%" stop-color="#A30C00"/>
   <stop offset="99%" stop-color="#800E08"/>
   <stop offset="100%" stop-color="#800E08"/>
  </radialGradient>
  <linearGradient id="o" y2="11.993%" x2="3.105%" y1="101.717%" x1="56.57%">
   <stop offset="0%" stop-color="#8B2114"/>
   <stop offset="0%" stop-color="#8B2114"/>
   <stop offset="43%" stop-color="#9E100A"/>
   <stop offset="99%" stop-color="#B3100C"/>
   <stop offset="100%" stop-color="#B3100C"/>
  </linearGradient>
  <linearGradient id="p" y2="100.694%" x2="92.471%" y1="35.599%" x1="30.87%">
   <stop offset="0%" stop-color="#B31000"/>
   <stop offset="0%" stop-color="#B31000"/>
   <stop offset="44%" stop-color="#910F08"/>
   <stop offset="99%" stop-color="#791C12"/>
   <stop offset="100%" stop-color="#791C12"/>
  </linearGradient>
 </defs>
 <g>
  <title>background</title>
  <rect fill="none" id="canvas_background" height="258" width="258" y="-1" x="-1"/>
 </g>
 <g>
  <title>Layer 1</title>
  <g id="svg_19">
   <path id="svg_1" fill="url(#a)" d="m197.467,167.764l-145.52,86.41l188.422,-12.787l14.511,-189.994l-57.414,116.37l0.001,0.001z"/>
   <path id="svg_2" fill="url(#b)" d="m240.677,241.257l-16.195,-111.777l-44.113,58.25l60.308,53.528l0,-0.001z"/>
   <path id="svg_3" fill="url(#c)" d="m240.896,241.257l-118.646,-9.313l-69.674,21.986l188.32,-12.673z"/>
   <path id="svg_4" fill="url(#d)" d="m52.744,253.955l29.64,-97.1l-65.224,13.945l35.583,83.154l0.001,0.001z"/>
   <path id="svg_5" fill="url(#e)" d="m180.358,188.05l-27.273,-106.824l-78.047,73.16l105.32,33.666l0,-0.002z"/>
   <path id="svg_6" fill="url(#f)" d="m248.693,82.73l-73.777,-60.256l-20.544,66.418l94.321,-6.162z"/>
   <path id="svg_7" fill="url(#g)" d="m214.191,0.99l-43.391,23.98l-27.376,-24.301l70.767,0.322l0,-0.001z"/>
   <path id="svg_8" fill="url(#h)" d="m0,203.372l18.177,-33.151l-14.704,-39.494l-3.473,72.645z"/>
   <path id="svg_9" fill="#FFF" d="m2.496,129.48l14.794,41.963l64.283,-14.422l73.39,-68.207l20.712,-65.787l-32.612,-23.027l-55.445,20.75c-17.469,16.248 -51.366,48.396 -52.588,49c-1.21,0.618 -22.384,40.639 -32.534,59.73z"/>
   <path id="svg_10" fill="url(#i)" d="m54.442,54.094c37.86,-37.538 86.667,-59.716 105.397,-40.818c18.72,18.898 -1.132,64.823 -38.992,102.349c-37.86,37.525 -86.062,60.925 -104.78,42.027c-18.73,-18.885 0.515,-66.032 38.375,-103.558z"/>
   <path id="svg_11" fill="url(#j)" d="m52.744,253.916l29.408,-97.409l97.665,31.376c-35.312,33.113 -74.587,61.106 -127.073,66.033z"/>
   <path id="svg_12" fill="url(#k)" d="m155.092,88.622l25.073,99.313c29.498,-31.016 55.972,-64.36 68.938,-105.603l-94.01,6.29l-0.001,0z"/>
   <path id="svg_13" fill="url(#l)" d="m248.847,82.833c10.035,-30.282 12.35,-73.725 -34.966,-81.791l-38.825,21.445l73.791,60.346z"/>
   <path id="svg_14" fill="#9E1209" d="m0,202.935c1.39,49.979 37.448,50.724 52.808,51.162l-35.48,-82.86l-17.328,31.698z"/>
   <path id="svg_15" fill="url(#m)" d="m155.232,88.777c22.667,13.932 68.35,41.912 69.276,42.426c1.44,0.81 19.695,-30.784 23.838,-48.64l-93.114,6.214z"/>
   <path id="svg_16" fill="url(#n)" d="m82.113,156.507l39.313,75.848c23.246,-12.607 41.45,-27.967 58.121,-44.42l-97.434,-31.428z"/>
   <path id="svg_17" fill="url(#o)" d="m17.174,171.34l-5.57,66.328c10.51,14.357 24.97,15.605 40.136,14.486c-10.973,-27.311 -32.894,-81.92 -34.566,-80.814z"/>
   <path id="svg_18" fill="url(#p)" d="m174.826,22.654l78.1,10.96c-4.169,-17.662 -16.969,-29.06 -38.787,-32.623l-39.313,21.663z"/>
  </g>
 </g>
</svg>